<?xml version="1.0" encoding="UTF-8" standalone="no"?>
<!DOCTYPE svg PUBLIC "-//W3C//DTD SVG 1.1//EN"
 "http://www.w3.org/Graphics/SVG/1.1/DTD/svg11.dtd">
<!-- Generated by graphviz version 2.42.4 (0)
 -->
<!-- Title: g Pages: 1 -->
<svg width="142pt" height="314pt"
 viewBox="0.00 0.00 141.56 314.00" xmlns="http://www.w3.org/2000/svg" xmlns:xlink="http://www.w3.org/1999/xlink">
<g id="graph0" class="graph" transform="scale(1 1) rotate(0) translate(4 310)">
<title>g</title>
<polygon fill="white" stroke="transparent" points="-4,4 -4,-310 137.56,-310 137.56,4 -4,4"/>
<!-- node3 -->
<g id="node1" class="node">
<title>node3</title>
<polygon fill="none" stroke="black" points="3.78,-65.5 3.78,-101.5 57.78,-101.5 57.78,-65.5 3.78,-65.5"/>
<text text-anchor="middle" x="30.78" y="-80.4" font-family="Helvetica,Arial,sans-serif" font-size="12.00">D</text>
</g>
<!-- node5 -->
<g id="node6" class="node">
<title>node5</title>
<ellipse fill="none" stroke="black" cx="30.78" cy="-18" rx="30.56" ry="18"/>
<text text-anchor="middle" x="30.78" y="-14.9" font-family="Helvetica,Arial,sans-serif" font-size="12.00">node5</text>
</g>
<!-- node3&#45;&gt;node5 -->
<g id="4" class="edge">
<title>node3:f3&#45;&gt;node5</title>
<path fill="none" stroke="black" d="M30.78,-65.19C30.78,-59.37 30.78,-52.8 30.78,-46.47"/>
<polygon fill="black" stroke="black" points="34.28,-46.25 30.78,-36.25 27.28,-46.25 34.28,-46.25"/>
</g>
<!-- node2 -->
<g id="node2" class="node">
<title>node2</title>
<polygon fill="none" stroke="black" points="39.78,-131.5 39.78,-173.5 93.78,-173.5 93.78,-131.5 39.78,-131.5"/>
<text text-anchor="middle" x="66.78" y="-159.9" font-family="Helvetica,Arial,sans-serif" font-size="12.00">C</text>
<polyline fill="none" stroke="black" points="39.78,-152.5 93.78,-152.5 "/>
<text text-anchor="middle" x="66.78" y="-138.9" font-family="Helvetica,Arial,sans-serif" font-size="12.00">E</text>
</g>
<!-- node2&#45;&gt;node3 -->
<g id="2" class="edge">
<title>node2:f2&#45;&gt;node3</title>
<path fill="none" stroke="black" d="M38.78,-163.5C17.38,-163.5 18.99,-134.45 23.57,-111.59"/>
<polygon fill="black" stroke="black" points="27.03,-112.17 25.82,-101.64 20.2,-110.63 27.03,-112.17"/>
</g>
<!-- node4 -->
<g id="node5" class="node">
<title>node4</title>
<ellipse fill="none" stroke="black" cx="102.78" cy="-83.5" rx="30.56" ry="18"/>
<text text-anchor="middle" x="102.78" y="-80.4" font-family="Helvetica,Arial,sans-serif" font-size="12.00">node4</text>
</g>
<!-- node2&#45;&gt;node4 -->
<g id="3" class="edge">
<title>node2:f4&#45;&gt;node4</title>
<path fill="none" stroke="black" d="M94.78,-141.5C108.01,-141.5 109.7,-126.24 108.24,-111.52"/>
<polygon fill="black" stroke="black" points="111.7,-111.01 106.83,-101.6 104.77,-111.99 111.7,-111.01"/>
</g>
<!-- node1 -->
<g id="node3" class="node">
<title>node1</title>
<polygon fill="none" stroke="black" points="39.78,-203.5 39.78,-239.5 93.78,-239.5 93.78,-203.5 39.78,-203.5"/>
<text text-anchor="middle" x="66.78" y="-218.4" font-family="Helvetica,Arial,sans-serif" font-size="12.00">B</text>
</g>
<!-- node1&#45;&gt;node2 -->
<g id="1" class="edge">
<title>node1:f1&#45;&gt;node2</title>
<path fill="none" stroke="black" d="M66.78,-203.28C66.78,-197.29 66.78,-190.46 66.78,-183.82"/>
<polygon fill="black" stroke="black" points="70.28,-183.69 66.78,-173.69 63.28,-183.69 70.28,-183.69"/>
</g>
<!-- node0 -->
<g id="node4" class="node">
<title>node0</title>
<polygon fill="none" stroke="black" points="39.78,-269.5 39.78,-305.5 93.78,-305.5 93.78,-269.5 39.78,-269.5"/>
<text text-anchor="middle" x="66.78" y="-284.4" font-family="Helvetica,Arial,sans-serif" font-size="12.00">A</text>
</g>
<!-- node0&#45;&gt;node1 -->
<g id="0" class="edge">
<title>node0:f0&#45;&gt;node1</title>
<path fill="none" stroke="black" d="M66.78,-269.39C66.78,-263.28 66.78,-256.32 66.78,-249.66"/>
<polygon fill="black" stroke="black" points="70.28,-249.62 66.78,-239.62 63.28,-249.62 70.28,-249.62"/>
</g>
</g>
</svg>
