<?xml version="1.0" encoding="UTF-8" standalone="no"?>
<!DOCTYPE svg PUBLIC "-//W3C//DTD SVG 1.1//EN"
 "http://www.w3.org/Graphics/SVG/1.1/DTD/svg11.dtd">
<!-- Generated by graphviz version 2.42.4 (0)
 -->
<!-- Title: g Pages: 1 -->
<svg width="694pt" height="354pt"
 viewBox="0.00 0.00 694.38 353.75" xmlns="http://www.w3.org/2000/svg" xmlns:xlink="http://www.w3.org/1999/xlink">
<g id="graph0" class="graph" transform="scale(1 1) rotate(0) translate(4 349.75)">
<title>g</title>
<polygon fill="white" stroke="transparent" points="-4,4 -4,-349.75 690.38,-349.75 690.38,4 -4,4"/>
<!-- node0 -->
<g id="node1" class="node">
<title>node0</title>
<polygon fill="none" stroke="black" points="181.38,-299.55 181.38,-341.55 513.38,-341.55 513.38,-299.55 181.38,-299.55"/>
<text text-anchor="middle" x="193.88" y="-327.95" font-family="Helvetica,Arial,sans-serif" font-size="12.00">A</text>
<polyline fill="none" stroke="black" points="181.38,-320.55 206.38,-320.55 "/>
<text text-anchor="middle" x="193.88" y="-306.95" font-family="Helvetica,Arial,sans-serif" font-size="12.00">B</text>
<polyline fill="none" stroke="black" points="206.38,-299.55 206.38,-341.55 "/>
<text text-anchor="middle" x="219.38" y="-327.95" font-family="Helvetica,Arial,sans-serif" font-size="12.00">C</text>
<polyline fill="none" stroke="black" points="206.38,-320.55 232.38,-320.55 "/>
<text text-anchor="middle" x="219.38" y="-306.95" font-family="Helvetica,Arial,sans-serif" font-size="12.00">D</text>
<polyline fill="none" stroke="black" points="232.38,-299.55 232.38,-341.55 "/>
<text text-anchor="middle" x="244.88" y="-327.95" font-family="Helvetica,Arial,sans-serif" font-size="12.00">E</text>
<polyline fill="none" stroke="black" points="232.38,-320.55 257.38,-320.55 "/>
<text text-anchor="middle" x="244.88" y="-306.95" font-family="Helvetica,Arial,sans-serif" font-size="12.00">F</text>
<polyline fill="none" stroke="black" points="257.38,-299.55 257.38,-341.55 "/>
<text text-anchor="middle" x="270.38" y="-327.95" font-family="Helvetica,Arial,sans-serif" font-size="12.00">G</text>
<polyline fill="none" stroke="black" points="257.38,-320.55 283.38,-320.55 "/>
<text text-anchor="middle" x="270.38" y="-306.95" font-family="Helvetica,Arial,sans-serif" font-size="12.00">H</text>
<polyline fill="none" stroke="black" points="283.38,-299.55 283.38,-341.55 "/>
<text text-anchor="middle" x="294.88" y="-327.95" font-family="Helvetica,Arial,sans-serif" font-size="12.00">I</text>
<polyline fill="none" stroke="black" points="283.38,-320.55 306.38,-320.55 "/>
<text text-anchor="middle" x="294.88" y="-306.95" font-family="Helvetica,Arial,sans-serif" font-size="12.00">J</text>
<polyline fill="none" stroke="black" points="306.38,-299.55 306.38,-341.55 "/>
<text text-anchor="middle" x="318.88" y="-327.95" font-family="Helvetica,Arial,sans-serif" font-size="12.00">K</text>
<polyline fill="none" stroke="black" points="306.38,-320.55 331.38,-320.55 "/>
<text text-anchor="middle" x="318.88" y="-306.95" font-family="Helvetica,Arial,sans-serif" font-size="12.00">L</text>
<polyline fill="none" stroke="black" points="331.38,-299.55 331.38,-341.55 "/>
<text text-anchor="middle" x="344.38" y="-327.95" font-family="Helvetica,Arial,sans-serif" font-size="12.00">M</text>
<polyline fill="none" stroke="black" points="331.38,-320.55 357.38,-320.55 "/>
<text text-anchor="middle" x="344.38" y="-306.95" font-family="Helvetica,Arial,sans-serif" font-size="12.00">N</text>
<polyline fill="none" stroke="black" points="357.38,-299.55 357.38,-341.55 "/>
<text text-anchor="middle" x="370.38" y="-327.95" font-family="Helvetica,Arial,sans-serif" font-size="12.00">O</text>
<polyline fill="none" stroke="black" points="357.38,-320.55 383.38,-320.55 "/>
<text text-anchor="middle" x="370.38" y="-306.95" font-family="Helvetica,Arial,sans-serif" font-size="12.00">P</text>
<polyline fill="none" stroke="black" points="383.38,-299.55 383.38,-341.55 "/>
<text text-anchor="middle" x="396.38" y="-327.95" font-family="Helvetica,Arial,sans-serif" font-size="12.00">Q</text>
<polyline fill="none" stroke="black" points="383.38,-320.55 409.38,-320.55 "/>
<text text-anchor="middle" x="396.38" y="-306.95" font-family="Helvetica,Arial,sans-serif" font-size="12.00">R</text>
<polyline fill="none" stroke="black" points="409.38,-299.55 409.38,-341.55 "/>
<text text-anchor="middle" x="421.88" y="-327.95" font-family="Helvetica,Arial,sans-serif" font-size="12.00">S</text>
<polyline fill="none" stroke="black" points="409.38,-320.55 434.38,-320.55 "/>
<text text-anchor="middle" x="421.88" y="-306.95" font-family="Helvetica,Arial,sans-serif" font-size="12.00">T</text>
<polyline fill="none" stroke="black" points="434.38,-299.55 434.38,-341.55 "/>
<text text-anchor="middle" x="447.38" y="-327.95" font-family="Helvetica,Arial,sans-serif" font-size="12.00">U</text>
<polyline fill="none" stroke="black" points="434.38,-320.55 460.38,-320.55 "/>
<text text-anchor="middle" x="447.38" y="-306.95" font-family="Helvetica,Arial,sans-serif" font-size="12.00">V</text>
<polyline fill="none" stroke="black" points="460.38,-299.55 460.38,-341.55 "/>
<text text-anchor="middle" x="474.38" y="-327.95" font-family="Helvetica,Arial,sans-serif" font-size="12.00">W</text>
<polyline fill="none" stroke="black" points="460.38,-320.55 488.38,-320.55 "/>
<text text-anchor="middle" x="474.38" y="-306.95" font-family="Helvetica,Arial,sans-serif" font-size="12.00">X</text>
<polyline fill="none" stroke="black" points="488.38,-299.55 488.38,-341.55 "/>
<text text-anchor="middle" x="500.88" y="-327.95" font-family="Helvetica,Arial,sans-serif" font-size="12.00">Y</text>
<polyline fill="none" stroke="black" points="488.38,-320.55 513.38,-320.55 "/>
<text text-anchor="middle" x="500.88" y="-306.95" font-family="Helvetica,Arial,sans-serif" font-size="12.00">Z</text>
</g>
<!-- node1 -->
<g id="node2" class="node">
<title>node1</title>
<polygon fill="none" stroke="black" points="181.38,-227.55 181.38,-269.55 513.38,-269.55 513.38,-227.55 181.38,-227.55"/>
<text text-anchor="middle" x="193.88" y="-255.95" font-family="Helvetica,Arial,sans-serif" font-size="12.00">A</text>
<polyline fill="none" stroke="black" points="181.38,-248.55 206.38,-248.55 "/>
<text text-anchor="middle" x="193.88" y="-234.95" font-family="Helvetica,Arial,sans-serif" font-size="12.00">B</text>
<polyline fill="none" stroke="black" points="206.38,-227.55 206.38,-269.55 "/>
<text text-anchor="middle" x="219.38" y="-255.95" font-family="Helvetica,Arial,sans-serif" font-size="12.00">C</text>
<polyline fill="none" stroke="black" points="206.38,-248.55 232.38,-248.55 "/>
<text text-anchor="middle" x="219.38" y="-234.95" font-family="Helvetica,Arial,sans-serif" font-size="12.00">D</text>
<polyline fill="none" stroke="black" points="232.38,-227.55 232.38,-269.55 "/>
<text text-anchor="middle" x="244.88" y="-255.95" font-family="Helvetica,Arial,sans-serif" font-size="12.00">E</text>
<polyline fill="none" stroke="black" points="232.38,-248.55 257.38,-248.55 "/>
<text text-anchor="middle" x="244.88" y="-234.95" font-family="Helvetica,Arial,sans-serif" font-size="12.00">F</text>
<polyline fill="none" stroke="black" points="257.38,-227.55 257.38,-269.55 "/>
<text text-anchor="middle" x="270.38" y="-255.95" font-family="Helvetica,Arial,sans-serif" font-size="12.00">G</text>
<polyline fill="none" stroke="black" points="257.38,-248.55 283.38,-248.55 "/>
<text text-anchor="middle" x="270.38" y="-234.95" font-family="Helvetica,Arial,sans-serif" font-size="12.00">H</text>
<polyline fill="none" stroke="black" points="283.38,-227.55 283.38,-269.55 "/>
<text text-anchor="middle" x="294.88" y="-255.95" font-family="Helvetica,Arial,sans-serif" font-size="12.00">I</text>
<polyline fill="none" stroke="black" points="283.38,-248.55 306.38,-248.55 "/>
<text text-anchor="middle" x="294.88" y="-234.95" font-family="Helvetica,Arial,sans-serif" font-size="12.00">J</text>
<polyline fill="none" stroke="black" points="306.38,-227.55 306.38,-269.55 "/>
<text text-anchor="middle" x="318.88" y="-255.95" font-family="Helvetica,Arial,sans-serif" font-size="12.00">K</text>
<polyline fill="none" stroke="black" points="306.38,-248.55 331.38,-248.55 "/>
<text text-anchor="middle" x="318.88" y="-234.95" font-family="Helvetica,Arial,sans-serif" font-size="12.00">L</text>
<polyline fill="none" stroke="black" points="331.38,-227.55 331.38,-269.55 "/>
<text text-anchor="middle" x="344.38" y="-255.95" font-family="Helvetica,Arial,sans-serif" font-size="12.00">M</text>
<polyline fill="none" stroke="black" points="331.38,-248.55 357.38,-248.55 "/>
<text text-anchor="middle" x="344.38" y="-234.95" font-family="Helvetica,Arial,sans-serif" font-size="12.00">N</text>
<polyline fill="none" stroke="black" points="357.38,-227.55 357.38,-269.55 "/>
<text text-anchor="middle" x="370.38" y="-255.95" font-family="Helvetica,Arial,sans-serif" font-size="12.00">O</text>
<polyline fill="none" stroke="black" points="357.38,-248.55 383.38,-248.55 "/>
<text text-anchor="middle" x="370.38" y="-234.95" font-family="Helvetica,Arial,sans-serif" font-size="12.00">P</text>
<polyline fill="none" stroke="black" points="383.38,-227.55 383.38,-269.55 "/>
<text text-anchor="middle" x="396.38" y="-255.95" font-family="Helvetica,Arial,sans-serif" font-size="12.00">Q</text>
<polyline fill="none" stroke="black" points="383.38,-248.55 409.38,-248.55 "/>
<text text-anchor="middle" x="396.38" y="-234.95" font-family="Helvetica,Arial,sans-serif" font-size="12.00">R</text>
<polyline fill="none" stroke="black" points="409.38,-227.55 409.38,-269.55 "/>
<text text-anchor="middle" x="421.88" y="-255.95" font-family="Helvetica,Arial,sans-serif" font-size="12.00">S</text>
<polyline fill="none" stroke="black" points="409.38,-248.55 434.38,-248.55 "/>
<text text-anchor="middle" x="421.88" y="-234.95" font-family="Helvetica,Arial,sans-serif" font-size="12.00">T</text>
<polyline fill="none" stroke="black" points="434.38,-227.55 434.38,-269.55 "/>
<text text-anchor="middle" x="447.38" y="-255.95" font-family="Helvetica,Arial,sans-serif" font-size="12.00">U</text>
<polyline fill="none" stroke="black" points="434.38,-248.55 460.38,-248.55 "/>
<text text-anchor="middle" x="447.38" y="-234.95" font-family="Helvetica,Arial,sans-serif" font-size="12.00">V</text>
<polyline fill="none" stroke="black" points="460.38,-227.55 460.38,-269.55 "/>
<text text-anchor="middle" x="474.38" y="-255.95" font-family="Helvetica,Arial,sans-serif" font-size="12.00">W</text>
<polyline fill="none" stroke="black" points="460.38,-248.55 488.38,-248.55 "/>
<text text-anchor="middle" x="474.38" y="-234.95" font-family="Helvetica,Arial,sans-serif" font-size="12.00">X</text>
<polyline fill="none" stroke="black" points="488.38,-227.55 488.38,-269.55 "/>
<text text-anchor="middle" x="500.88" y="-255.95" font-family="Helvetica,Arial,sans-serif" font-size="12.00">Y</text>
<polyline fill="none" stroke="black" points="488.38,-248.55 513.38,-248.55 "/>
<text text-anchor="middle" x="500.88" y="-234.95" font-family="Helvetica,Arial,sans-serif" font-size="12.00">Z</text>
</g>
<!-- node0&#45;&gt;node1 -->
<g id="0" class="edge">
<title>node0:f0&#45;&gt;node1:f0</title>
<path fill="none" stroke="black" d="M193.38,-342.55C193.38,-347.9 185.01,-345.49 181.38,-341.55 168.59,-327.65 177.7,-317.58 181.38,-299.05 183.25,-289.65 188.22,-286.06 191.15,-280.2"/>
<polygon fill="black" stroke="black" points="194.65,-280.57 193.38,-270.05 187.81,-279.07 194.65,-280.57"/>
</g>
<!-- node2 -->
<g id="node3" class="node">
<title>node2</title>
<polygon fill="none" stroke="black" points="181.38,-155.55 181.38,-197.55 513.38,-197.55 513.38,-155.55 181.38,-155.55"/>
<text text-anchor="middle" x="193.88" y="-183.95" font-family="Helvetica,Arial,sans-serif" font-size="12.00">A</text>
<polyline fill="none" stroke="black" points="181.38,-176.55 206.38,-176.55 "/>
<text text-anchor="middle" x="193.88" y="-162.95" font-family="Helvetica,Arial,sans-serif" font-size="12.00">B</text>
<polyline fill="none" stroke="black" points="206.38,-155.55 206.38,-197.55 "/>
<text text-anchor="middle" x="219.38" y="-183.95" font-family="Helvetica,Arial,sans-serif" font-size="12.00">C</text>
<polyline fill="none" stroke="black" points="206.38,-176.55 232.38,-176.55 "/>
<text text-anchor="middle" x="219.38" y="-162.95" font-family="Helvetica,Arial,sans-serif" font-size="12.00">D</text>
<polyline fill="none" stroke="black" points="232.38,-155.55 232.38,-197.55 "/>
<text text-anchor="middle" x="244.88" y="-183.95" font-family="Helvetica,Arial,sans-serif" font-size="12.00">E</text>
<polyline fill="none" stroke="black" points="232.38,-176.55 257.38,-176.55 "/>
<text text-anchor="middle" x="244.88" y="-162.95" font-family="Helvetica,Arial,sans-serif" font-size="12.00">F</text>
<polyline fill="none" stroke="black" points="257.38,-155.55 257.38,-197.55 "/>
<text text-anchor="middle" x="270.38" y="-183.95" font-family="Helvetica,Arial,sans-serif" font-size="12.00">G</text>
<polyline fill="none" stroke="black" points="257.38,-176.55 283.38,-176.55 "/>
<text text-anchor="middle" x="270.38" y="-162.95" font-family="Helvetica,Arial,sans-serif" font-size="12.00">H</text>
<polyline fill="none" stroke="black" points="283.38,-155.55 283.38,-197.55 "/>
<text text-anchor="middle" x="294.88" y="-183.95" font-family="Helvetica,Arial,sans-serif" font-size="12.00">I</text>
<polyline fill="none" stroke="black" points="283.38,-176.55 306.38,-176.55 "/>
<text text-anchor="middle" x="294.88" y="-162.95" font-family="Helvetica,Arial,sans-serif" font-size="12.00">J</text>
<polyline fill="none" stroke="black" points="306.38,-155.55 306.38,-197.55 "/>
<text text-anchor="middle" x="318.88" y="-183.95" font-family="Helvetica,Arial,sans-serif" font-size="12.00">K</text>
<polyline fill="none" stroke="black" points="306.38,-176.55 331.38,-176.55 "/>
<text text-anchor="middle" x="318.88" y="-162.95" font-family="Helvetica,Arial,sans-serif" font-size="12.00">L</text>
<polyline fill="none" stroke="black" points="331.38,-155.55 331.38,-197.55 "/>
<text text-anchor="middle" x="344.38" y="-183.95" font-family="Helvetica,Arial,sans-serif" font-size="12.00">M</text>
<polyline fill="none" stroke="black" points="331.38,-176.55 357.38,-176.55 "/>
<text text-anchor="middle" x="344.38" y="-162.95" font-family="Helvetica,Arial,sans-serif" font-size="12.00">N</text>
<polyline fill="none" stroke="black" points="357.38,-155.55 357.38,-197.55 "/>
<text text-anchor="middle" x="370.38" y="-183.95" font-family="Helvetica,Arial,sans-serif" font-size="12.00">O</text>
<polyline fill="none" stroke="black" points="357.38,-176.55 383.38,-176.55 "/>
<text text-anchor="middle" x="370.38" y="-162.95" font-family="Helvetica,Arial,sans-serif" font-size="12.00">P</text>
<polyline fill="none" stroke="black" points="383.38,-155.55 383.38,-197.55 "/>
<text text-anchor="middle" x="396.38" y="-183.95" font-family="Helvetica,Arial,sans-serif" font-size="12.00">Q</text>
<polyline fill="none" stroke="black" points="383.38,-176.55 409.38,-176.55 "/>
<text text-anchor="middle" x="396.38" y="-162.95" font-family="Helvetica,Arial,sans-serif" font-size="12.00">R</text>
<polyline fill="none" stroke="black" points="409.38,-155.55 409.38,-197.55 "/>
<text text-anchor="middle" x="421.88" y="-183.95" font-family="Helvetica,Arial,sans-serif" font-size="12.00">S</text>
<polyline fill="none" stroke="black" points="409.38,-176.55 434.38,-176.55 "/>
<text text-anchor="middle" x="421.88" y="-162.95" font-family="Helvetica,Arial,sans-serif" font-size="12.00">T</text>
<polyline fill="none" stroke="black" points="434.38,-155.55 434.38,-197.55 "/>
<text text-anchor="middle" x="447.38" y="-183.95" font-family="Helvetica,Arial,sans-serif" font-size="12.00">U</text>
<polyline fill="none" stroke="black" points="434.38,-176.55 460.38,-176.55 "/>
<text text-anchor="middle" x="447.38" y="-162.95" font-family="Helvetica,Arial,sans-serif" font-size="12.00">V</text>
<polyline fill="none" stroke="black" points="460.38,-155.55 460.38,-197.55 "/>
<text text-anchor="middle" x="474.38" y="-183.95" font-family="Helvetica,Arial,sans-serif" font-size="12.00">W</text>
<polyline fill="none" stroke="black" points="460.38,-176.55 488.38,-176.55 "/>
<text text-anchor="middle" x="474.38" y="-162.95" font-family="Helvetica,Arial,sans-serif" font-size="12.00">X</text>
<polyline fill="none" stroke="black" points="488.38,-155.55 488.38,-197.55 "/>
<text text-anchor="middle" x="500.88" y="-183.95" font-family="Helvetica,Arial,sans-serif" font-size="12.00">Y</text>
<polyline fill="none" stroke="black" points="488.38,-176.55 513.38,-176.55 "/>
<text text-anchor="middle" x="500.88" y="-162.95" font-family="Helvetica,Arial,sans-serif" font-size="12.00">Z</text>
</g>
<!-- node1&#45;&gt;node2 -->
<g id="1" class="edge">
<title>node1:f1&#45;&gt;node2:f1</title>
<path fill="none" stroke="black" d="M193.38,-227.05C193.38,-213.1 184.1,-211.73 181.38,-198.05 177.7,-179.53 168.59,-169.45 181.38,-155.55 181.95,-154.94 182.63,-154.36 183.38,-153.84"/>
<polygon fill="black" stroke="black" points="183.16,-157.33 193.38,-154.55 183.66,-150.35 183.16,-157.33"/>
</g>
<!-- node3 -->
<g id="node4" class="node">
<title>node3</title>
<polygon fill="none" stroke="black" points="8.38,-83.55 8.38,-125.55 340.38,-125.55 340.38,-83.55 8.38,-83.55"/>
<text text-anchor="middle" x="20.88" y="-111.95" font-family="Helvetica,Arial,sans-serif" font-size="12.00">A</text>
<polyline fill="none" stroke="black" points="8.38,-104.55 33.38,-104.55 "/>
<text text-anchor="middle" x="20.88" y="-90.95" font-family="Helvetica,Arial,sans-serif" font-size="12.00">B</text>
<polyline fill="none" stroke="black" points="33.38,-83.55 33.38,-125.55 "/>
<text text-anchor="middle" x="46.38" y="-111.95" font-family="Helvetica,Arial,sans-serif" font-size="12.00">C</text>
<polyline fill="none" stroke="black" points="33.38,-104.55 59.38,-104.55 "/>
<text text-anchor="middle" x="46.38" y="-90.95" font-family="Helvetica,Arial,sans-serif" font-size="12.00">D</text>
<polyline fill="none" stroke="black" points="59.38,-83.55 59.38,-125.55 "/>
<text text-anchor="middle" x="71.88" y="-111.95" font-family="Helvetica,Arial,sans-serif" font-size="12.00">E</text>
<polyline fill="none" stroke="black" points="59.38,-104.55 84.38,-104.55 "/>
<text text-anchor="middle" x="71.88" y="-90.95" font-family="Helvetica,Arial,sans-serif" font-size="12.00">F</text>
<polyline fill="none" stroke="black" points="84.38,-83.55 84.38,-125.55 "/>
<text text-anchor="middle" x="97.38" y="-111.95" font-family="Helvetica,Arial,sans-serif" font-size="12.00">G</text>
<polyline fill="none" stroke="black" points="84.38,-104.55 110.38,-104.55 "/>
<text text-anchor="middle" x="97.38" y="-90.95" font-family="Helvetica,Arial,sans-serif" font-size="12.00">H</text>
<polyline fill="none" stroke="black" points="110.38,-83.55 110.38,-125.55 "/>
<text text-anchor="middle" x="121.88" y="-111.95" font-family="Helvetica,Arial,sans-serif" font-size="12.00">I</text>
<polyline fill="none" stroke="black" points="110.38,-104.55 133.38,-104.55 "/>
<text text-anchor="middle" x="121.88" y="-90.95" font-family="Helvetica,Arial,sans-serif" font-size="12.00">J</text>
<polyline fill="none" stroke="black" points="133.38,-83.55 133.38,-125.55 "/>
<text text-anchor="middle" x="145.88" y="-111.95" font-family="Helvetica,Arial,sans-serif" font-size="12.00">K</text>
<polyline fill="none" stroke="black" points="133.38,-104.55 158.38,-104.55 "/>
<text text-anchor="middle" x="145.88" y="-90.95" font-family="Helvetica,Arial,sans-serif" font-size="12.00">L</text>
<polyline fill="none" stroke="black" points="158.38,-83.55 158.38,-125.55 "/>
<text text-anchor="middle" x="171.38" y="-111.95" font-family="Helvetica,Arial,sans-serif" font-size="12.00">M</text>
<polyline fill="none" stroke="black" points="158.38,-104.55 184.38,-104.55 "/>
<text text-anchor="middle" x="171.38" y="-90.95" font-family="Helvetica,Arial,sans-serif" font-size="12.00">N</text>
<polyline fill="none" stroke="black" points="184.38,-83.55 184.38,-125.55 "/>
<text text-anchor="middle" x="197.38" y="-111.95" font-family="Helvetica,Arial,sans-serif" font-size="12.00">O</text>
<polyline fill="none" stroke="black" points="184.38,-104.55 210.38,-104.55 "/>
<text text-anchor="middle" x="197.38" y="-90.95" font-family="Helvetica,Arial,sans-serif" font-size="12.00">P</text>
<polyline fill="none" stroke="black" points="210.38,-83.55 210.38,-125.55 "/>
<text text-anchor="middle" x="223.38" y="-111.95" font-family="Helvetica,Arial,sans-serif" font-size="12.00">Q</text>
<polyline fill="none" stroke="black" points="210.38,-104.55 236.38,-104.55 "/>
<text text-anchor="middle" x="223.38" y="-90.95" font-family="Helvetica,Arial,sans-serif" font-size="12.00">R</text>
<polyline fill="none" stroke="black" points="236.38,-83.55 236.38,-125.55 "/>
<text text-anchor="middle" x="248.88" y="-111.95" font-family="Helvetica,Arial,sans-serif" font-size="12.00">S</text>
<polyline fill="none" stroke="black" points="236.38,-104.55 261.38,-104.55 "/>
<text text-anchor="middle" x="248.88" y="-90.95" font-family="Helvetica,Arial,sans-serif" font-size="12.00">T</text>
<polyline fill="none" stroke="black" points="261.38,-83.55 261.38,-125.55 "/>
<text text-anchor="middle" x="274.38" y="-111.95" font-family="Helvetica,Arial,sans-serif" font-size="12.00">U</text>
<polyline fill="none" stroke="black" points="261.38,-104.55 287.38,-104.55 "/>
<text text-anchor="middle" x="274.38" y="-90.95" font-family="Helvetica,Arial,sans-serif" font-size="12.00">V</text>
<polyline fill="none" stroke="black" points="287.38,-83.55 287.38,-125.55 "/>
<text text-anchor="middle" x="301.38" y="-111.95" font-family="Helvetica,Arial,sans-serif" font-size="12.00">W</text>
<polyline fill="none" stroke="black" points="287.38,-104.55 315.38,-104.55 "/>
<text text-anchor="middle" x="301.38" y="-90.95" font-family="Helvetica,Arial,sans-serif" font-size="12.00">X</text>
<polyline fill="none" stroke="black" points="315.38,-83.55 315.38,-125.55 "/>
<text text-anchor="middle" x="327.88" y="-111.95" font-family="Helvetica,Arial,sans-serif" font-size="12.00">Y</text>
<polyline fill="none" stroke="black" points="315.38,-104.55 340.38,-104.55 "/>
<text text-anchor="middle" x="327.88" y="-90.95" font-family="Helvetica,Arial,sans-serif" font-size="12.00">Z</text>
</g>
<!-- node2&#45;&gt;node3 -->
<g id="2" class="edge">
<title>node2:f2&#45;&gt;node3:f2</title>
<path fill="none" stroke="black" d="M219.38,-198.55C219.38,-237.14 71.11,-177.87 49.1,-135.78"/>
<polygon fill="black" stroke="black" points="52.44,-134.74 46.38,-126.05 45.7,-136.62 52.44,-134.74"/>
</g>
<!-- node4 -->
<g id="node5" class="node">
<title>node4</title>
<polygon fill="none" stroke="black" points="354.38,-83.55 354.38,-125.55 686.38,-125.55 686.38,-83.55 354.38,-83.55"/>
<text text-anchor="middle" x="366.88" y="-111.95" font-family="Helvetica,Arial,sans-serif" font-size="12.00">A</text>
<polyline fill="none" stroke="black" points="354.38,-104.55 379.38,-104.55 "/>
<text text-anchor="middle" x="366.88" y="-90.95" font-family="Helvetica,Arial,sans-serif" font-size="12.00">B</text>
<polyline fill="none" stroke="black" points="379.38,-83.55 379.38,-125.55 "/>
<text text-anchor="middle" x="392.38" y="-111.95" font-family="Helvetica,Arial,sans-serif" font-size="12.00">C</text>
<polyline fill="none" stroke="black" points="379.38,-104.55 405.38,-104.55 "/>
<text text-anchor="middle" x="392.38" y="-90.95" font-family="Helvetica,Arial,sans-serif" font-size="12.00">D</text>
<polyline fill="none" stroke="black" points="405.38,-83.55 405.38,-125.55 "/>
<text text-anchor="middle" x="417.88" y="-111.95" font-family="Helvetica,Arial,sans-serif" font-size="12.00">E</text>
<polyline fill="none" stroke="black" points="405.38,-104.55 430.38,-104.55 "/>
<text text-anchor="middle" x="417.88" y="-90.95" font-family="Helvetica,Arial,sans-serif" font-size="12.00">F</text>
<polyline fill="none" stroke="black" points="430.38,-83.55 430.38,-125.55 "/>
<text text-anchor="middle" x="443.38" y="-111.95" font-family="Helvetica,Arial,sans-serif" font-size="12.00">G</text>
<polyline fill="none" stroke="black" points="430.38,-104.55 456.38,-104.55 "/>
<text text-anchor="middle" x="443.38" y="-90.95" font-family="Helvetica,Arial,sans-serif" font-size="12.00">H</text>
<polyline fill="none" stroke="black" points="456.38,-83.55 456.38,-125.55 "/>
<text text-anchor="middle" x="467.88" y="-111.95" font-family="Helvetica,Arial,sans-serif" font-size="12.00">I</text>
<polyline fill="none" stroke="black" points="456.38,-104.55 479.38,-104.55 "/>
<text text-anchor="middle" x="467.88" y="-90.95" font-family="Helvetica,Arial,sans-serif" font-size="12.00">J</text>
<polyline fill="none" stroke="black" points="479.38,-83.55 479.38,-125.55 "/>
<text text-anchor="middle" x="491.88" y="-111.95" font-family="Helvetica,Arial,sans-serif" font-size="12.00">K</text>
<polyline fill="none" stroke="black" points="479.38,-104.55 504.38,-104.55 "/>
<text text-anchor="middle" x="491.88" y="-90.95" font-family="Helvetica,Arial,sans-serif" font-size="12.00">L</text>
<polyline fill="none" stroke="black" points="504.38,-83.55 504.38,-125.55 "/>
<text text-anchor="middle" x="517.38" y="-111.95" font-family="Helvetica,Arial,sans-serif" font-size="12.00">M</text>
<polyline fill="none" stroke="black" points="504.38,-104.55 530.38,-104.55 "/>
<text text-anchor="middle" x="517.38" y="-90.95" font-family="Helvetica,Arial,sans-serif" font-size="12.00">N</text>
<polyline fill="none" stroke="black" points="530.38,-83.55 530.38,-125.55 "/>
<text text-anchor="middle" x="543.38" y="-111.95" font-family="Helvetica,Arial,sans-serif" font-size="12.00">O</text>
<polyline fill="none" stroke="black" points="530.38,-104.55 556.38,-104.55 "/>
<text text-anchor="middle" x="543.38" y="-90.95" font-family="Helvetica,Arial,sans-serif" font-size="12.00">P</text>
<polyline fill="none" stroke="black" points="556.38,-83.55 556.38,-125.55 "/>
<text text-anchor="middle" x="569.38" y="-111.95" font-family="Helvetica,Arial,sans-serif" font-size="12.00">Q</text>
<polyline fill="none" stroke="black" points="556.38,-104.55 582.38,-104.55 "/>
<text text-anchor="middle" x="569.38" y="-90.95" font-family="Helvetica,Arial,sans-serif" font-size="12.00">R</text>
<polyline fill="none" stroke="black" points="582.38,-83.55 582.38,-125.55 "/>
<text text-anchor="middle" x="594.88" y="-111.95" font-family="Helvetica,Arial,sans-serif" font-size="12.00">S</text>
<polyline fill="none" stroke="black" points="582.38,-104.55 607.38,-104.55 "/>
<text text-anchor="middle" x="594.88" y="-90.95" font-family="Helvetica,Arial,sans-serif" font-size="12.00">T</text>
<polyline fill="none" stroke="black" points="607.38,-83.55 607.38,-125.55 "/>
<text text-anchor="middle" x="620.38" y="-111.95" font-family="Helvetica,Arial,sans-serif" font-size="12.00">U</text>
<polyline fill="none" stroke="black" points="607.38,-104.55 633.38,-104.55 "/>
<text text-anchor="middle" x="620.38" y="-90.95" font-family="Helvetica,Arial,sans-serif" font-size="12.00">V</text>
<polyline fill="none" stroke="black" points="633.38,-83.55 633.38,-125.55 "/>
<text text-anchor="middle" x="647.38" y="-111.95" font-family="Helvetica,Arial,sans-serif" font-size="12.00">W</text>
<polyline fill="none" stroke="black" points="633.38,-104.55 661.38,-104.55 "/>
<text text-anchor="middle" x="647.38" y="-90.95" font-family="Helvetica,Arial,sans-serif" font-size="12.00">X</text>
<polyline fill="none" stroke="black" points="661.38,-83.55 661.38,-125.55 "/>
<text text-anchor="middle" x="673.88" y="-111.95" font-family="Helvetica,Arial,sans-serif" font-size="12.00">Y</text>
<polyline fill="none" stroke="black" points="661.38,-104.55 686.38,-104.55 "/>
<text text-anchor="middle" x="673.88" y="-90.95" font-family="Helvetica,Arial,sans-serif" font-size="12.00">Z</text>
</g>
<!-- node2&#45;&gt;node4 -->
<g id="3" class="edge">
<title>node2:f4&#45;&gt;node4:f4</title>
<path fill="none" stroke="black" d="M244.38,-198.55C244.38,-212.55 191.21,-207.53 181.38,-197.55 168.13,-184.09 168.87,-169.2 181.38,-155.05 213.8,-118.41 388.46,-170.05 414.21,-135.99"/>
<polygon fill="black" stroke="black" points="417.68,-136.64 417.38,-126.05 411.01,-134.51 417.68,-136.64"/>
</g>
<!-- node5 -->
<g id="node6" class="node">
<title>node5</title>
<polygon fill="none" stroke="black" points="8.38,-11.55 8.38,-53.55 340.38,-53.55 340.38,-11.55 8.38,-11.55"/>
<text text-anchor="middle" x="20.88" y="-39.95" font-family="Helvetica,Arial,sans-serif" font-size="12.00">A</text>
<polyline fill="none" stroke="black" points="8.38,-32.55 33.38,-32.55 "/>
<text text-anchor="middle" x="20.88" y="-18.95" font-family="Helvetica,Arial,sans-serif" font-size="12.00">B</text>
<polyline fill="none" stroke="black" points="33.38,-11.55 33.38,-53.55 "/>
<text text-anchor="middle" x="46.38" y="-39.95" font-family="Helvetica,Arial,sans-serif" font-size="12.00">C</text>
<polyline fill="none" stroke="black" points="33.38,-32.55 59.38,-32.55 "/>
<text text-anchor="middle" x="46.38" y="-18.95" font-family="Helvetica,Arial,sans-serif" font-size="12.00">D</text>
<polyline fill="none" stroke="black" points="59.38,-11.55 59.38,-53.55 "/>
<text text-anchor="middle" x="71.88" y="-39.95" font-family="Helvetica,Arial,sans-serif" font-size="12.00">E</text>
<polyline fill="none" stroke="black" points="59.38,-32.55 84.38,-32.55 "/>
<text text-anchor="middle" x="71.88" y="-18.95" font-family="Helvetica,Arial,sans-serif" font-size="12.00">F</text>
<polyline fill="none" stroke="black" points="84.38,-11.55 84.38,-53.55 "/>
<text text-anchor="middle" x="97.38" y="-39.95" font-family="Helvetica,Arial,sans-serif" font-size="12.00">G</text>
<polyline fill="none" stroke="black" points="84.38,-32.55 110.38,-32.55 "/>
<text text-anchor="middle" x="97.38" y="-18.95" font-family="Helvetica,Arial,sans-serif" font-size="12.00">H</text>
<polyline fill="none" stroke="black" points="110.38,-11.55 110.38,-53.55 "/>
<text text-anchor="middle" x="121.88" y="-39.95" font-family="Helvetica,Arial,sans-serif" font-size="12.00">I</text>
<polyline fill="none" stroke="black" points="110.38,-32.55 133.38,-32.55 "/>
<text text-anchor="middle" x="121.88" y="-18.95" font-family="Helvetica,Arial,sans-serif" font-size="12.00">J</text>
<polyline fill="none" stroke="black" points="133.38,-11.55 133.38,-53.55 "/>
<text text-anchor="middle" x="145.88" y="-39.95" font-family="Helvetica,Arial,sans-serif" font-size="12.00">K</text>
<polyline fill="none" stroke="black" points="133.38,-32.55 158.38,-32.55 "/>
<text text-anchor="middle" x="145.88" y="-18.95" font-family="Helvetica,Arial,sans-serif" font-size="12.00">L</text>
<polyline fill="none" stroke="black" points="158.38,-11.55 158.38,-53.55 "/>
<text text-anchor="middle" x="171.38" y="-39.95" font-family="Helvetica,Arial,sans-serif" font-size="12.00">M</text>
<polyline fill="none" stroke="black" points="158.38,-32.55 184.38,-32.55 "/>
<text text-anchor="middle" x="171.38" y="-18.95" font-family="Helvetica,Arial,sans-serif" font-size="12.00">N</text>
<polyline fill="none" stroke="black" points="184.38,-11.55 184.38,-53.55 "/>
<text text-anchor="middle" x="197.38" y="-39.95" font-family="Helvetica,Arial,sans-serif" font-size="12.00">O</text>
<polyline fill="none" stroke="black" points="184.38,-32.55 210.38,-32.55 "/>
<text text-anchor="middle" x="197.38" y="-18.95" font-family="Helvetica,Arial,sans-serif" font-size="12.00">P</text>
<polyline fill="none" stroke="black" points="210.38,-11.55 210.38,-53.55 "/>
<text text-anchor="middle" x="223.38" y="-39.95" font-family="Helvetica,Arial,sans-serif" font-size="12.00">Q</text>
<polyline fill="none" stroke="black" points="210.38,-32.55 236.38,-32.55 "/>
<text text-anchor="middle" x="223.38" y="-18.95" font-family="Helvetica,Arial,sans-serif" font-size="12.00">R</text>
<polyline fill="none" stroke="black" points="236.38,-11.55 236.38,-53.55 "/>
<text text-anchor="middle" x="248.88" y="-39.95" font-family="Helvetica,Arial,sans-serif" font-size="12.00">S</text>
<polyline fill="none" stroke="black" points="236.38,-32.55 261.38,-32.55 "/>
<text text-anchor="middle" x="248.88" y="-18.95" font-family="Helvetica,Arial,sans-serif" font-size="12.00">T</text>
<polyline fill="none" stroke="black" points="261.38,-11.55 261.38,-53.55 "/>
<text text-anchor="middle" x="274.38" y="-39.95" font-family="Helvetica,Arial,sans-serif" font-size="12.00">U</text>
<polyline fill="none" stroke="black" points="261.38,-32.55 287.38,-32.55 "/>
<text text-anchor="middle" x="274.38" y="-18.95" font-family="Helvetica,Arial,sans-serif" font-size="12.00">V</text>
<polyline fill="none" stroke="black" points="287.38,-11.55 287.38,-53.55 "/>
<text text-anchor="middle" x="301.38" y="-39.95" font-family="Helvetica,Arial,sans-serif" font-size="12.00">W</text>
<polyline fill="none" stroke="black" points="287.38,-32.55 315.38,-32.55 "/>
<text text-anchor="middle" x="301.38" y="-18.95" font-family="Helvetica,Arial,sans-serif" font-size="12.00">X</text>
<polyline fill="none" stroke="black" points="315.38,-11.55 315.38,-53.55 "/>
<text text-anchor="middle" x="327.88" y="-39.95" font-family="Helvetica,Arial,sans-serif" font-size="12.00">Y</text>
<polyline fill="none" stroke="black" points="315.38,-32.55 340.38,-32.55 "/>
<text text-anchor="middle" x="327.88" y="-18.95" font-family="Helvetica,Arial,sans-serif" font-size="12.00">Z</text>
</g>
<!-- node3&#45;&gt;node5 -->
<g id="4" class="edge">
<title>node3:f3&#45;&gt;node5:f3</title>
<path fill="none" stroke="black" d="M46.38,-83.05C46.38,-61.81 17.81,-73.09 8.38,-54.05 0.01,-37.12 -4.8,-25.08 8.38,-11.55 17.04,-2.66 33.48,2.82 41.6,-1.58"/>
<polygon fill="black" stroke="black" points="38.59,-3.38 46.38,-10.55 44.76,-0.08 38.59,-3.38"/>
</g>
</g>
</svg>
