<?xml version="1.0" encoding="UTF-8" standalone="no"?>
<!DOCTYPE svg PUBLIC "-//W3C//DTD SVG 1.1//EN"
 "http://www.w3.org/Graphics/SVG/1.1/DTD/svg11.dtd">
<!-- Generated by graphviz version 2.42.4 (0)
 -->
<!-- Title: g Pages: 1 -->
<svg width="179pt" height="651pt"
 viewBox="0.00 0.00 179.00 651.00" xmlns="http://www.w3.org/2000/svg" xmlns:xlink="http://www.w3.org/1999/xlink">
<g id="graph0" class="graph" transform="scale(1 1) rotate(0) translate(4 647)">
<title>g</title>
<polygon fill="white" stroke="transparent" points="-4,4 -4,-647 175,-647 175,4 -4,4"/>
<!-- node12 -->
<g id="node1" class="node">
<title>node12</title>
<polygon fill="none" stroke="black" points="49,-66.5 49,-102.5 103,-102.5 103,-66.5 49,-66.5"/>
<text text-anchor="middle" x="76" y="-81.4" font-family="Helvetica,Arial,sans-serif" font-size="12.00">A</text>
</g>
<!-- node13 -->
<g id="node14" class="node">
<title>node13</title>
<polygon fill="none" stroke="black" points="49,-0.5 49,-36.5 103,-36.5 103,-0.5 49,-0.5"/>
<text text-anchor="middle" x="76" y="-15.4" font-family="Helvetica,Arial,sans-serif" font-size="12.00">NULL</text>
</g>
<!-- node12&#45;&gt;node13 -->
<g id="14" class="edge">
<title>node12:f0&#45;&gt;node13</title>
<path fill="none" stroke="black" d="M76,-66.39C76,-60.28 76,-53.32 76,-46.66"/>
<polygon fill="black" stroke="black" points="79.5,-46.62 76,-36.62 72.5,-46.62 79.5,-46.62"/>
</g>
<!-- node11 -->
<g id="node2" class="node">
<title>node11</title>
<polygon fill="none" stroke="black" points="49,-132.5 49,-168.5 103,-168.5 103,-132.5 49,-132.5"/>
<text text-anchor="middle" x="76" y="-147.4" font-family="Helvetica,Arial,sans-serif" font-size="12.00">R</text>
</g>
<!-- node11&#45;&gt;node12 -->
<g id="13" class="edge">
<title>node11:f17&#45;&gt;node12</title>
<path fill="none" stroke="black" d="M76,-132.39C76,-126.28 76,-119.32 76,-112.66"/>
<polygon fill="black" stroke="black" points="79.5,-112.62 76,-102.62 72.5,-112.62 79.5,-112.62"/>
</g>
<!-- node10 -->
<g id="node3" class="node">
<title>node10</title>
<polygon fill="none" stroke="black" points="49,-198.5 49,-234.5 103,-234.5 103,-198.5 49,-198.5"/>
<text text-anchor="middle" x="76" y="-213.4" font-family="Helvetica,Arial,sans-serif" font-size="12.00">B</text>
</g>
<!-- node10&#45;&gt;node11 -->
<g id="12" class="edge">
<title>node10:f1&#45;&gt;node11</title>
<path fill="none" stroke="black" d="M76,-198.39C76,-192.28 76,-185.32 76,-178.66"/>
<polygon fill="black" stroke="black" points="79.5,-178.62 76,-168.62 72.5,-178.62 79.5,-178.62"/>
</g>
<!-- node9 -->
<g id="node4" class="node">
<title>node9</title>
<polygon fill="none" stroke="black" points="117,-264.5 117,-300.5 171,-300.5 171,-264.5 117,-264.5"/>
<text text-anchor="middle" x="144" y="-279.4" font-family="Helvetica,Arial,sans-serif" font-size="12.00">M</text>
</g>
<!-- node9&#45;&gt;node10 -->
<g id="11" class="edge">
<title>node9:f12&#45;&gt;node10</title>
<path fill="none" stroke="black" d="M125.06,-264.39C117.75,-257.41 109.28,-249.31 101.45,-241.83"/>
<polygon fill="black" stroke="black" points="103.55,-238.99 93.91,-234.62 98.72,-244.06 103.55,-238.99"/>
</g>
<!-- node8 -->
<g id="node5" class="node">
<title>node8</title>
<polygon fill="none" stroke="black" points="0,-330.5 0,-366.5 54,-366.5 54,-330.5 0,-330.5"/>
<text text-anchor="middle" x="27" y="-345.4" font-family="Helvetica,Arial,sans-serif" font-size="12.00">R</text>
</g>
<!-- node8&#45;&gt;node10 -->
<g id="10" class="edge">
<title>node8:f17&#45;&gt;node10</title>
<path fill="none" stroke="black" d="M27.85,-330.35C29.21,-312.76 32.76,-285.65 42,-264 45.08,-256.79 49.46,-249.64 54.05,-243.18"/>
<polygon fill="black" stroke="black" points="57.1,-244.95 60.35,-234.87 51.52,-240.73 57.1,-244.95"/>
</g>
<!-- node7 -->
<g id="node6" class="node">
<title>node7</title>
<polygon fill="none" stroke="black" points="49,-264.5 49,-300.5 103,-300.5 103,-264.5 49,-264.5"/>
<text text-anchor="middle" x="76" y="-279.4" font-family="Helvetica,Arial,sans-serif" font-size="12.00">F</text>
</g>
<!-- node7&#45;&gt;node10 -->
<g id="9" class="edge">
<title>node7:f5&#45;&gt;node10</title>
<path fill="none" stroke="black" d="M76,-264.39C76,-258.28 76,-251.32 76,-244.66"/>
<polygon fill="black" stroke="black" points="79.5,-244.62 76,-234.62 72.5,-244.62 79.5,-244.62"/>
</g>
<!-- node6 -->
<g id="node7" class="node">
<title>node6</title>
<polygon fill="none" stroke="black" points="112,-330.5 112,-366.5 166,-366.5 166,-330.5 112,-330.5"/>
<text text-anchor="middle" x="139" y="-345.4" font-family="Helvetica,Arial,sans-serif" font-size="12.00">A</text>
</g>
<!-- node6&#45;&gt;node9 -->
<g id="8" class="edge">
<title>node6:f0&#45;&gt;node9</title>
<path fill="none" stroke="black" d="M140.39,-330.39C140.86,-324.28 141.4,-317.32 141.91,-310.66"/>
<polygon fill="black" stroke="black" points="145.41,-310.85 142.68,-300.62 138.43,-310.32 145.41,-310.85"/>
</g>
<!-- node5 -->
<g id="node8" class="node">
<title>node5</title>
<polygon fill="none" stroke="black" points="0,-399.5 0,-435.5 54,-435.5 54,-399.5 0,-399.5"/>
<text text-anchor="middle" x="27" y="-414.4" font-family="Helvetica,Arial,sans-serif" font-size="12.00">E</text>
</g>
<!-- node5&#45;&gt;node8 -->
<g id="7" class="edge">
<title>node5:f4&#45;&gt;node8</title>
<path fill="none" stroke="black" d="M27,-399.28C27,-392.43 27,-384.49 27,-376.99"/>
<polygon fill="black" stroke="black" points="30.5,-376.84 27,-366.84 23.5,-376.84 30.5,-376.84"/>
</g>
<!-- node4 -->
<g id="node9" class="node">
<title>node4</title>
<polygon fill="none" stroke="black" points="68,-396.5 68,-438.5 122,-438.5 122,-396.5 68,-396.5"/>
<text text-anchor="middle" x="95" y="-424.9" font-family="Helvetica,Arial,sans-serif" font-size="12.00">H</text>
<polyline fill="none" stroke="black" points="68,-417.5 122,-417.5 "/>
<text text-anchor="middle" x="95" y="-403.9" font-family="Helvetica,Arial,sans-serif" font-size="12.00">O</text>
</g>
<!-- node4&#45;&gt;node7 -->
<g id="6" class="edge">
<title>node4:f14&#45;&gt;node7</title>
<path fill="none" stroke="black" d="M95,-396C95,-366.42 88.53,-333.06 83.15,-310.41"/>
<polygon fill="black" stroke="black" points="86.49,-309.37 80.7,-300.5 79.7,-311.05 86.49,-309.37"/>
</g>
<!-- node4&#45;&gt;node6 -->
<g id="5" class="edge">
<title>node4:f7&#45;&gt;node6</title>
<path fill="none" stroke="black" d="M123,-428.5C144.72,-428.5 145.98,-399.45 143.61,-376.59"/>
<polygon fill="black" stroke="black" points="147.08,-376.11 142.33,-366.64 140.14,-377.01 147.08,-376.11"/>
</g>
<!-- node3 -->
<g id="node10" class="node">
<title>node3</title>
<polygon fill="none" stroke="black" points="0,-468.5 0,-504.5 54,-504.5 54,-468.5 0,-468.5"/>
<text text-anchor="middle" x="27" y="-483.4" font-family="Helvetica,Arial,sans-serif" font-size="12.00">G</text>
</g>
<!-- node3&#45;&gt;node5 -->
<g id="4" class="edge">
<title>node3:f6&#45;&gt;node5</title>
<path fill="none" stroke="black" d="M27,-468.28C27,-461.43 27,-453.49 27,-445.99"/>
<polygon fill="black" stroke="black" points="30.5,-445.84 27,-435.84 23.5,-445.84 30.5,-445.84"/>
</g>
<!-- node2 -->
<g id="node11" class="node">
<title>node2</title>
<polygon fill="none" stroke="black" points="68,-468.5 68,-504.5 122,-504.5 122,-468.5 68,-468.5"/>
<text text-anchor="middle" x="95" y="-483.4" font-family="Helvetica,Arial,sans-serif" font-size="12.00">O</text>
</g>
<!-- node2&#45;&gt;node4 -->
<g id="3" class="edge">
<title>node2:f14&#45;&gt;node4</title>
<path fill="none" stroke="black" d="M95,-468.28C95,-462.29 95,-455.46 95,-448.82"/>
<polygon fill="black" stroke="black" points="98.5,-448.69 95,-438.69 91.5,-448.69 98.5,-448.69"/>
</g>
<!-- node1 -->
<g id="node12" class="node">
<title>node1</title>
<polygon fill="none" stroke="black" points="34,-534.5 34,-576.5 88,-576.5 88,-534.5 34,-534.5"/>
<text text-anchor="middle" x="61" y="-562.9" font-family="Helvetica,Arial,sans-serif" font-size="12.00">L</text>
<polyline fill="none" stroke="black" points="34,-555.5 88,-555.5 "/>
<text text-anchor="middle" x="61" y="-541.9" font-family="Helvetica,Arial,sans-serif" font-size="12.00">N</text>
</g>
<!-- node1&#45;&gt;node3 -->
<g id="2" class="edge">
<title>node1:f13&#45;&gt;node3</title>
<path fill="none" stroke="black" d="M61,-534C61,-526.44 58.03,-519.28 53.85,-512.96"/>
<polygon fill="black" stroke="black" points="56.47,-510.62 47.56,-504.89 50.95,-514.93 56.47,-510.62"/>
</g>
<!-- node1&#45;&gt;node2 -->
<g id="1" class="edge">
<title>node1:f11&#45;&gt;node2</title>
<path fill="none" stroke="black" d="M89,-566.5C110.35,-566.5 108.02,-537.45 102.87,-514.59"/>
<polygon fill="black" stroke="black" points="106.2,-513.49 100.38,-504.64 99.41,-515.19 106.2,-513.49"/>
</g>
<!-- node0 -->
<g id="node13" class="node">
<title>node0</title>
<polygon fill="none" stroke="black" points="34,-606.5 34,-642.5 88,-642.5 88,-606.5 34,-606.5"/>
<text text-anchor="middle" x="61" y="-621.4" font-family="Helvetica,Arial,sans-serif" font-size="12.00">A</text>
</g>
<!-- node0&#45;&gt;node1 -->
<g id="0" class="edge">
<title>node0:f0&#45;&gt;node1</title>
<path fill="none" stroke="black" d="M61,-606.28C61,-600.29 61,-593.46 61,-586.82"/>
<polygon fill="black" stroke="black" points="64.5,-586.69 61,-576.69 57.5,-586.69 64.5,-586.69"/>
</g>
</g>
</svg>
