<?xml version="1.0" encoding="UTF-8" standalone="no"?>
<!DOCTYPE svg PUBLIC "-//W3C//DTD SVG 1.1//EN"
 "http://www.w3.org/Graphics/SVG/1.1/DTD/svg11.dtd">
<!-- Generated by graphviz version 2.42.4 (0)
 -->
<!-- Title: g Pages: 1 -->
<svg width="83pt" height="434pt"
 viewBox="0.00 0.00 82.50 434.00" xmlns="http://www.w3.org/2000/svg" xmlns:xlink="http://www.w3.org/1999/xlink">
<g id="graph0" class="graph" transform="scale(1 1) rotate(0) translate(4 430)">
<title>g</title>
<polygon fill="white" stroke="transparent" points="-4,4 -4,-430 78.5,-430 78.5,4 -4,4"/>
<!-- node4 -->
<g id="node1" class="node">
<title>node4</title>
<polygon fill="gray" stroke="transparent" points="16.5,-10 16.5,-52 60.5,-52 60.5,-10 16.5,-10"/>
<polygon fill="none" stroke="black" stroke-width="2" points="17.5,-11 17.5,-51 59.5,-51 59.5,-11 17.5,-11"/>
<text text-anchor="start" x="28.5" y="-27.2" font-family="Helvetica, Arial, sans-serif" font-size="16.00"> E </text>
<polygon fill="none" stroke="black" points="10.5,-4 10.5,-58 66.5,-58 66.5,-4 10.5,-4"/>
</g>
<!-- node3 -->
<g id="node2" class="node">
<title>node3</title>
<polygon fill="none" stroke="black" stroke-width="2" points="16.5,-102 16.5,-142 59.5,-142 59.5,-102 16.5,-102"/>
<text text-anchor="start" x="27.5" y="-118.2" font-family="Helvetica, Arial, sans-serif" font-size="16.00"> D </text>
<polygon fill="none" stroke="black" points="9,-95 9,-149 66,-149 66,-95 9,-95"/>
</g>
<!-- node3&#45;&gt;node4 -->
<g id="3" class="edge">
<title>node3:f3&#45;&gt;node4</title>
<path fill="none" stroke="black" d="M38.5,-100.8C38.5,-92.35 38.5,-82.22 38.5,-72.35"/>
<polygon fill="black" stroke="black" points="42,-72.26 38.5,-62.26 35,-72.26 42,-72.26"/>
</g>
<!-- node2 -->
<g id="node3" class="node">
<title>node2</title>
<polygon fill="gray" stroke="transparent" points="14.5,-192 14.5,-234 59.5,-234 59.5,-192 14.5,-192"/>
<polygon fill="none" stroke="black" stroke-width="2" points="15.5,-193 15.5,-233 58.5,-233 58.5,-193 15.5,-193"/>
<text text-anchor="start" x="26.5" y="-209.2" font-family="Helvetica, Arial, sans-serif" font-size="16.00"> C </text>
<polygon fill="none" stroke="black" points="8,-186 8,-240 65,-240 65,-186 8,-186"/>
</g>
<!-- node2&#45;&gt;node3 -->
<g id="2" class="edge">
<title>node2:f2&#45;&gt;node3</title>
<path fill="none" stroke="black" d="M37.5,-191.8C37.5,-183.35 37.5,-173.22 37.5,-163.35"/>
<polygon fill="black" stroke="black" points="41,-163.26 37.5,-153.26 34,-163.26 41,-163.26"/>
</g>
<!-- node1 -->
<g id="node4" class="node">
<title>node1</title>
<polygon fill="none" stroke="black" stroke-width="2" points="15.5,-284 15.5,-324 57.5,-324 57.5,-284 15.5,-284"/>
<text text-anchor="start" x="26.5" y="-300.2" font-family="Helvetica, Arial, sans-serif" font-size="16.00"> B </text>
<polygon fill="none" stroke="black" points="8.5,-277 8.5,-331 64.5,-331 64.5,-277 8.5,-277"/>
</g>
<!-- node1&#45;&gt;node2 -->
<g id="1" class="edge">
<title>node1:f1&#45;&gt;node2</title>
<path fill="none" stroke="black" d="M36.5,-282.8C36.5,-274.35 36.5,-264.22 36.5,-254.35"/>
<polygon fill="black" stroke="black" points="40,-254.26 36.5,-244.26 33,-254.26 40,-254.26"/>
</g>
<!-- node0 -->
<g id="node5" class="node">
<title>node0</title>
<polygon fill="gray" stroke="transparent" points="14.5,-374 14.5,-416 58.5,-416 58.5,-374 14.5,-374"/>
<polygon fill="none" stroke="black" stroke-width="2" points="15.5,-375 15.5,-415 57.5,-415 57.5,-375 15.5,-375"/>
<text text-anchor="start" x="26.5" y="-391.2" font-family="Helvetica, Arial, sans-serif" font-size="16.00"> A </text>
<polygon fill="none" stroke="black" points="8.5,-368 8.5,-422 64.5,-422 64.5,-368 8.5,-368"/>
</g>
<!-- node0&#45;&gt;node1 -->
<g id="0" class="edge">
<title>node0:f0&#45;&gt;node1</title>
<path fill="none" stroke="black" d="M36.5,-373.8C36.5,-365.35 36.5,-355.22 36.5,-345.35"/>
<polygon fill="black" stroke="black" points="40,-345.26 36.5,-335.26 33,-345.26 40,-345.26"/>
</g>
</g>
</svg>
