<?xml version="1.0" encoding="UTF-8" standalone="no"?>
<!DOCTYPE svg PUBLIC "-//W3C//DTD SVG 1.1//EN"
 "http://www.w3.org/Graphics/SVG/1.1/DTD/svg11.dtd">
<!-- Generated by graphviz version 2.42.4 (0)
 -->
<!-- Title: g Pages: 1 -->
<svg width="346pt" height="616pt"
 viewBox="0.00 0.00 345.50 616.00" xmlns="http://www.w3.org/2000/svg" xmlns:xlink="http://www.w3.org/1999/xlink">
<g id="graph0" class="graph" transform="scale(1 1) rotate(0) translate(4 612)">
<title>g</title>
<polygon fill="white" stroke="transparent" points="-4,4 -4,-612 341.5,-612 341.5,4 -4,4"/>
<!-- node23 -->
<g id="node1" class="node">
<title>node23</title>
<polygon fill="gray" stroke="transparent" points="279,-10 279,-52 324,-52 324,-10 279,-10"/>
<polygon fill="none" stroke="black" stroke-width="2" points="280,-11 280,-51 323,-51 323,-11 280,-11"/>
<text text-anchor="start" x="291" y="-27.2" font-family="Helvetica, Arial, sans-serif" font-size="16.00"> R </text>
<polygon fill="none" stroke="black" points="272.5,-4 272.5,-58 329.5,-58 329.5,-4 272.5,-4"/>
</g>
<!-- node20 -->
<g id="node2" class="node">
<title>node20</title>
<polygon fill="none" stroke="black" stroke-width="2" points="280,-102 280,-142 322,-142 322,-102 280,-102"/>
<text text-anchor="start" x="291" y="-118.2" font-family="Helvetica, Arial, sans-serif" font-size="16.00"> A </text>
<polygon fill="none" stroke="black" points="273,-95 273,-149 329,-149 329,-95 273,-95"/>
</g>
<!-- node20&#45;&gt;node23 -->
<g id="19" class="edge">
<title>node20:f0&#45;&gt;node23</title>
<path fill="none" stroke="black" d="M301,-100.8C301,-92.35 301,-82.22 301,-72.35"/>
<polygon fill="black" stroke="black" points="304.5,-72.26 301,-62.26 297.5,-72.26 304.5,-72.26"/>
</g>
<!-- node19 -->
<g id="node3" class="node">
<title>node19</title>
<polygon fill="gray" stroke="transparent" points="191,-101 191,-143 235,-143 235,-101 191,-101"/>
<polygon fill="none" stroke="black" stroke-width="2" points="192,-102 192,-142 234,-142 234,-102 192,-102"/>
<text text-anchor="start" x="203" y="-118.2" font-family="Helvetica, Arial, sans-serif" font-size="16.00"> A </text>
<polygon fill="none" stroke="black" points="185,-95 185,-149 241,-149 241,-95 185,-95"/>
</g>
<!-- node17 -->
<g id="node4" class="node">
<title>node17</title>
<polygon fill="gray" stroke="transparent" points="16,-101 16,-143 61,-143 61,-101 16,-101"/>
<polygon fill="none" stroke="black" stroke-width="2" points="17,-102 17,-142 60,-142 60,-102 17,-102"/>
<text text-anchor="start" x="28" y="-118.2" font-family="Helvetica, Arial, sans-serif" font-size="16.00"> C </text>
<polygon fill="none" stroke="black" points="9.5,-95 9.5,-149 66.5,-149 66.5,-95 9.5,-95"/>
</g>
<!-- node16 -->
<g id="node5" class="node">
<title>node16</title>
<polygon fill="none" stroke="black" stroke-width="2" points="280,-193 280,-233 321,-233 321,-193 280,-193"/>
<text text-anchor="start" x="291" y="-209.2" font-family="Helvetica, Arial, sans-serif" font-size="16.00"> Z </text>
<polygon fill="none" stroke="black" points="272.5,-186 272.5,-240 327.5,-240 327.5,-186 272.5,-186"/>
</g>
<!-- node16&#45;&gt;node20 -->
<g id="18" class="edge">
<title>node16:f25&#45;&gt;node20</title>
<path fill="none" stroke="black" d="M301,-191.8C301,-183.35 301,-173.22 301,-163.35"/>
<polygon fill="black" stroke="black" points="304.5,-163.26 301,-153.26 297.5,-163.26 304.5,-163.26"/>
</g>
<!-- node15 -->
<g id="node6" class="node">
<title>node15</title>
<polygon fill="none" stroke="black" stroke-width="2" points="191,-193 191,-233 234,-233 234,-193 191,-193"/>
<text text-anchor="start" x="202" y="-209.2" font-family="Helvetica, Arial, sans-serif" font-size="16.00"> N </text>
<polygon fill="none" stroke="black" points="183.5,-186 183.5,-240 240.5,-240 240.5,-186 183.5,-186"/>
</g>
<!-- node15&#45;&gt;node19 -->
<g id="17" class="edge">
<title>node15:f13&#45;&gt;node19</title>
<path fill="none" stroke="black" d="M213,-191.8C213,-183.35 213,-173.22 213,-163.35"/>
<polygon fill="black" stroke="black" points="216.5,-163.26 213,-153.26 209.5,-163.26 216.5,-163.26"/>
</g>
<!-- node14 -->
<g id="node7" class="node">
<title>node14</title>
<polygon fill="gray" stroke="transparent" points="103,-192 103,-234 147,-234 147,-192 103,-192"/>
<polygon fill="none" stroke="black" stroke-width="2" points="104,-193 104,-233 146,-233 146,-193 104,-193"/>
<text text-anchor="start" x="115" y="-209.2" font-family="Helvetica, Arial, sans-serif" font-size="16.00"> A </text>
<polygon fill="none" stroke="black" points="97,-186 97,-240 153,-240 153,-186 97,-186"/>
</g>
<!-- node13 -->
<g id="node8" class="node">
<title>node13</title>
<polygon fill="none" stroke="black" stroke-width="2" points="20,-193 20,-233 56,-233 56,-193 20,-193"/>
<text text-anchor="start" x="31" y="-209.2" font-family="Helvetica, Arial, sans-serif" font-size="16.00"> I </text>
<polygon fill="none" stroke="black" points="13,-186 13,-240 63,-240 63,-186 13,-186"/>
</g>
<!-- node13&#45;&gt;node17 -->
<g id="16" class="edge">
<title>node13:f8&#45;&gt;node17</title>
<path fill="none" stroke="black" d="M38,-191.8C38,-183.35 38,-173.22 38,-163.35"/>
<polygon fill="black" stroke="black" points="41.5,-163.26 38,-153.26 34.5,-163.26 41.5,-163.26"/>
</g>
<!-- node0 -->
<g id="node9" class="node">
<title>node0</title>
<polygon fill="none" stroke="black" stroke-width="2" points="70,-557 70,-597 114,-597 114,-557 70,-557"/>
<text text-anchor="start" x="81" y="-573.2" font-family="Helvetica, Arial, sans-serif" font-size="16.00"> G </text>
<polygon fill="none" stroke="black" stroke-width="2" points="121,-557 121,-597 164,-597 164,-557 121,-557"/>
<text text-anchor="start" x="132" y="-573.2" font-family="Helvetica, Arial, sans-serif" font-size="16.00"> H </text>
<polygon fill="none" stroke="black" stroke-width="2" points="171,-557 171,-597 214,-597 214,-557 171,-557"/>
<text text-anchor="start" x="182" y="-573.2" font-family="Helvetica, Arial, sans-serif" font-size="16.00"> R </text>
<polygon fill="none" stroke="black" stroke-width="2" points="221,-557 221,-597 263,-597 263,-557 221,-557"/>
<text text-anchor="start" x="232" y="-573.2" font-family="Helvetica, Arial, sans-serif" font-size="16.00"> S </text>
<polygon fill="none" stroke="black" points="62.5,-550 62.5,-604 269.5,-604 269.5,-550 62.5,-550"/>
</g>
<!-- node1 -->
<g id="node10" class="node">
<title>node1</title>
<polygon fill="none" stroke="black" stroke-width="2" points="15,-466 15,-506 59,-506 59,-466 15,-466"/>
<text text-anchor="start" x="26" y="-482.2" font-family="Helvetica, Arial, sans-serif" font-size="16.00"> O </text>
<polygon fill="none" stroke="black" points="8,-459 8,-513 66,-513 66,-459 8,-459"/>
</g>
<!-- node0&#45;&gt;node1 -->
<g id="0" class="edge">
<title>node0:f6&#45;&gt;node1</title>
<path fill="none" stroke="black" d="M92,-555C92,-543.72 87.37,-533.27 80.8,-524.1"/>
<polygon fill="black" stroke="black" points="83.31,-521.64 74.29,-516.07 77.86,-526.04 83.31,-521.64"/>
</g>
<!-- node2 -->
<g id="node11" class="node">
<title>node2</title>
<polygon fill="none" stroke="black" stroke-width="2" points="103,-466 103,-506 145,-506 145,-466 103,-466"/>
<text text-anchor="start" x="114" y="-482.2" font-family="Helvetica, Arial, sans-serif" font-size="16.00"> E </text>
<polygon fill="none" stroke="black" points="96,-459 96,-513 152,-513 152,-459 96,-459"/>
</g>
<!-- node0&#45;&gt;node2 -->
<g id="1" class="edge">
<title>node0:f7&#45;&gt;node2</title>
<path fill="none" stroke="black" d="M142,-555C142,-545.67 140.4,-535.86 138.15,-526.68"/>
<polygon fill="black" stroke="black" points="141.52,-525.74 135.5,-517.02 134.77,-527.59 141.52,-525.74"/>
</g>
<!-- node3 -->
<g id="node12" class="node">
<title>node3</title>
<polygon fill="none" stroke="black" stroke-width="2" points="189,-466 189,-506 233,-506 233,-466 189,-466"/>
<text text-anchor="start" x="200" y="-482.2" font-family="Helvetica, Arial, sans-serif" font-size="16.00"> O </text>
<polygon fill="none" stroke="black" points="182,-459 182,-513 240,-513 240,-459 182,-459"/>
</g>
<!-- node0&#45;&gt;node3 -->
<g id="2" class="edge">
<title>node0:f17&#45;&gt;node3</title>
<path fill="none" stroke="black" d="M193,-555C193,-545.67 194.6,-535.86 196.85,-526.68"/>
<polygon fill="black" stroke="black" points="200.23,-527.59 199.5,-517.02 193.48,-525.74 200.23,-527.59"/>
</g>
<!-- node4 -->
<g id="node13" class="node">
<title>node4</title>
<polygon fill="none" stroke="black" stroke-width="2" points="277,-466 277,-506 319,-506 319,-466 277,-466"/>
<text text-anchor="start" x="288" y="-482.2" font-family="Helvetica, Arial, sans-serif" font-size="16.00"> A </text>
<polygon fill="none" stroke="black" points="270,-459 270,-513 326,-513 326,-459 270,-459"/>
</g>
<!-- node0&#45;&gt;node4 -->
<g id="3" class="edge">
<title>node0:f18&#45;&gt;node4</title>
<path fill="none" stroke="black" d="M242,-555C242,-542.69 247.53,-531.4 255.12,-521.71"/>
<polygon fill="black" stroke="black" points="257.95,-523.79 261.9,-513.95 252.68,-519.18 257.95,-523.79"/>
</g>
<!-- node5 -->
<g id="node14" class="node">
<title>node5</title>
<polygon fill="none" stroke="black" stroke-width="2" points="16,-375 16,-415 59,-415 59,-375 16,-375"/>
<text text-anchor="start" x="27" y="-391.2" font-family="Helvetica, Arial, sans-serif" font-size="16.00"> D </text>
<polygon fill="none" stroke="black" points="8.5,-368 8.5,-422 65.5,-422 65.5,-368 8.5,-368"/>
</g>
<!-- node1&#45;&gt;node5 -->
<g id="4" class="edge">
<title>node1:f14&#45;&gt;node5</title>
<path fill="none" stroke="black" d="M37,-464.8C37,-456.35 37,-446.22 37,-436.35"/>
<polygon fill="black" stroke="black" points="40.5,-436.26 37,-426.26 33.5,-436.26 40.5,-436.26"/>
</g>
<!-- node6 -->
<g id="node15" class="node">
<title>node6</title>
<polygon fill="none" stroke="black" stroke-width="2" points="103,-375 103,-415 144,-415 144,-375 103,-375"/>
<text text-anchor="start" x="114" y="-391.2" font-family="Helvetica, Arial, sans-serif" font-size="16.00"> L </text>
<polygon fill="none" stroke="black" points="95.5,-368 95.5,-422 150.5,-422 150.5,-368 95.5,-368"/>
</g>
<!-- node2&#45;&gt;node6 -->
<g id="5" class="edge">
<title>node2:f4&#45;&gt;node6</title>
<path fill="none" stroke="black" d="M123.77,-464.8C123.68,-456.35 123.56,-446.22 123.45,-436.35"/>
<polygon fill="black" stroke="black" points="126.95,-436.22 123.34,-426.26 119.95,-436.3 126.95,-436.22"/>
</g>
<!-- node7 -->
<g id="node16" class="node">
<title>node7</title>
<polygon fill="none" stroke="black" stroke-width="2" points="188,-375 188,-415 235,-415 235,-375 188,-375"/>
<text text-anchor="start" x="199" y="-391.2" font-family="Helvetica, Arial, sans-serif" font-size="16.00"> W </text>
<polygon fill="none" stroke="black" points="180.5,-368 180.5,-422 241.5,-422 241.5,-368 180.5,-368"/>
</g>
<!-- node3&#45;&gt;node7 -->
<g id="6" class="edge">
<title>node3:f14&#45;&gt;node7</title>
<path fill="none" stroke="black" d="M211,-464.8C211,-456.35 211,-446.22 211,-436.35"/>
<polygon fill="black" stroke="black" points="214.5,-436.26 211,-426.26 207.5,-436.26 214.5,-436.26"/>
</g>
<!-- node8 -->
<g id="node17" class="node">
<title>node8</title>
<polygon fill="none" stroke="black" stroke-width="2" points="279,-375 279,-415 320,-415 320,-375 279,-375"/>
<text text-anchor="start" x="290" y="-391.2" font-family="Helvetica, Arial, sans-serif" font-size="16.00"> L </text>
<polygon fill="none" stroke="black" points="271.5,-368 271.5,-422 326.5,-422 326.5,-368 271.5,-368"/>
</g>
<!-- node4&#45;&gt;node8 -->
<g id="7" class="edge">
<title>node4:f0&#45;&gt;node8</title>
<path fill="none" stroke="black" d="M298.23,-464.8C298.32,-456.35 298.44,-446.22 298.55,-436.35"/>
<polygon fill="black" stroke="black" points="302.05,-436.3 298.66,-426.26 295.05,-436.22 302.05,-436.3"/>
</g>
<!-- node9 -->
<g id="node18" class="node">
<title>node9</title>
<polygon fill="none" stroke="black" stroke-width="2" points="16,-284 16,-324 59,-324 59,-284 16,-284"/>
<text text-anchor="start" x="27" y="-300.2" font-family="Helvetica, Arial, sans-serif" font-size="16.00"> R </text>
<polygon fill="none" stroke="black" points="8.5,-277 8.5,-331 65.5,-331 65.5,-277 8.5,-277"/>
</g>
<!-- node5&#45;&gt;node9 -->
<g id="8" class="edge">
<title>node5:f3&#45;&gt;node9</title>
<path fill="none" stroke="black" d="M37.77,-373.8C37.68,-365.35 37.56,-355.22 37.45,-345.35"/>
<polygon fill="black" stroke="black" points="40.95,-345.22 37.34,-335.26 33.95,-345.3 40.95,-345.22"/>
</g>
<!-- node10 -->
<g id="node19" class="node">
<title>node10</title>
<polygon fill="none" stroke="black" stroke-width="2" points="103,-284 103,-324 147,-324 147,-284 103,-284"/>
<text text-anchor="start" x="114" y="-300.2" font-family="Helvetica, Arial, sans-serif" font-size="16.00"> G </text>
<polygon fill="none" stroke="black" points="96,-277 96,-331 154,-331 154,-277 96,-277"/>
</g>
<!-- node6&#45;&gt;node10 -->
<g id="9" class="edge">
<title>node6:f11&#45;&gt;node10</title>
<path fill="none" stroke="black" d="M124.23,-373.8C124.32,-365.35 124.44,-355.22 124.55,-345.35"/>
<polygon fill="black" stroke="black" points="128.05,-345.3 124.66,-335.26 121.05,-345.22 128.05,-345.3"/>
</g>
<!-- node11 -->
<g id="node20" class="node">
<title>node11</title>
<polygon fill="none" stroke="black" stroke-width="2" points="191,-284 191,-324 233,-324 233,-284 191,-284"/>
<text text-anchor="start" x="202" y="-300.2" font-family="Helvetica, Arial, sans-serif" font-size="16.00"> E </text>
<polygon fill="none" stroke="black" points="184,-277 184,-331 240,-331 240,-277 184,-277"/>
</g>
<!-- node7&#45;&gt;node11 -->
<g id="10" class="edge">
<title>node7:f22&#45;&gt;node11</title>
<path fill="none" stroke="black" d="M212,-373.8C212,-365.35 212,-355.22 212,-345.35"/>
<polygon fill="black" stroke="black" points="215.5,-345.26 212,-335.26 208.5,-345.26 215.5,-345.26"/>
</g>
<!-- node12 -->
<g id="node21" class="node">
<title>node12</title>
<polygon fill="none" stroke="black" stroke-width="2" points="279,-284 279,-324 321,-324 321,-284 279,-284"/>
<text text-anchor="start" x="290" y="-300.2" font-family="Helvetica, Arial, sans-serif" font-size="16.00"> A </text>
<polygon fill="none" stroke="black" points="272,-277 272,-331 328,-331 328,-277 272,-277"/>
</g>
<!-- node8&#45;&gt;node12 -->
<g id="11" class="edge">
<title>node8:f11&#45;&gt;node12</title>
<path fill="none" stroke="black" d="M300,-373.8C300,-365.35 300,-355.22 300,-345.35"/>
<polygon fill="black" stroke="black" points="303.5,-345.26 300,-335.26 296.5,-345.26 303.5,-345.26"/>
</g>
<!-- node9&#45;&gt;node13 -->
<g id="12" class="edge">
<title>node9:f17&#45;&gt;node13</title>
<path fill="none" stroke="black" d="M38,-282.8C38,-274.35 38,-264.22 38,-254.35"/>
<polygon fill="black" stroke="black" points="41.5,-254.26 38,-244.26 34.5,-254.26 41.5,-254.26"/>
</g>
<!-- node10&#45;&gt;node14 -->
<g id="13" class="edge">
<title>node10:f6&#45;&gt;node14</title>
<path fill="none" stroke="black" d="M125,-282.8C125,-274.35 125,-264.22 125,-254.35"/>
<polygon fill="black" stroke="black" points="128.5,-254.26 125,-244.26 121.5,-254.26 128.5,-254.26"/>
</g>
<!-- node11&#45;&gt;node15 -->
<g id="14" class="edge">
<title>node11:f4&#45;&gt;node15</title>
<path fill="none" stroke="black" d="M212,-282.8C212,-274.35 212,-264.22 212,-254.35"/>
<polygon fill="black" stroke="black" points="215.5,-254.26 212,-244.26 208.5,-254.26 215.5,-254.26"/>
</g>
<!-- node12&#45;&gt;node16 -->
<g id="15" class="edge">
<title>node12:f0&#45;&gt;node16</title>
<path fill="none" stroke="black" d="M300,-282.8C300,-274.35 300,-264.22 300,-254.35"/>
<polygon fill="black" stroke="black" points="303.5,-254.26 300,-244.26 296.5,-254.26 303.5,-254.26"/>
</g>
</g>
</svg>
