<?xml version="1.0" encoding="UTF-8" standalone="no"?>
<!DOCTYPE svg PUBLIC "-//W3C//DTD SVG 1.1//EN"
 "http://www.w3.org/Graphics/SVG/1.1/DTD/svg11.dtd">
<!-- Generated by graphviz version 2.42.4 (0)
 -->
<!-- Title: g Pages: 1 -->
<svg width="84pt" height="434pt"
 viewBox="0.00 0.00 83.50 434.00" xmlns="http://www.w3.org/2000/svg" xmlns:xlink="http://www.w3.org/1999/xlink">
<g id="graph0" class="graph" transform="scale(1 1) rotate(0) translate(4 430)">
<title>g</title>
<polygon fill="white" stroke="transparent" points="-4,4 -4,-430 79.5,-430 79.5,4 -4,4"/>
<!-- node4 -->
<g id="node1" class="node">
<title>node4</title>
<polygon fill="gray" stroke="transparent" points="17.5,-10 17.5,-52 61.5,-52 61.5,-10 17.5,-10"/>
<polygon fill="none" stroke="black" stroke-width="2" points="18.5,-11 18.5,-51 60.5,-51 60.5,-11 18.5,-11"/>
<text text-anchor="start" x="29.5" y="-27.2" font-family="Helvetica, Arial, sans-serif" font-size="16.00"> Y </text>
<polygon fill="none" stroke="black" points="11.5,-4 11.5,-58 67.5,-58 67.5,-4 11.5,-4"/>
</g>
<!-- node3 -->
<g id="node2" class="node">
<title>node3</title>
<polygon fill="none" stroke="black" stroke-width="2" points="17.5,-102 17.5,-142 60.5,-142 60.5,-102 17.5,-102"/>
<text text-anchor="start" x="28.5" y="-118.2" font-family="Helvetica, Arial, sans-serif" font-size="16.00"> R </text>
<polygon fill="none" stroke="black" points="10,-95 10,-149 67,-149 67,-95 10,-95"/>
</g>
<!-- node3&#45;&gt;node4 -->
<g id="3" class="edge">
<title>node3:f17&#45;&gt;node4</title>
<path fill="none" stroke="black" d="M39.5,-100.8C39.5,-92.35 39.5,-82.22 39.5,-72.35"/>
<polygon fill="black" stroke="black" points="43,-72.26 39.5,-62.26 36,-72.26 43,-72.26"/>
</g>
<!-- node2 -->
<g id="node3" class="node">
<title>node2</title>
<polygon fill="none" stroke="black" stroke-width="2" points="16.5,-193 16.5,-233 59.5,-233 59.5,-193 16.5,-193"/>
<text text-anchor="start" x="27.5" y="-209.2" font-family="Helvetica, Arial, sans-serif" font-size="16.00"> R </text>
<polygon fill="none" stroke="black" points="9,-186 9,-240 66,-240 66,-186 9,-186"/>
</g>
<!-- node2&#45;&gt;node3 -->
<g id="2" class="edge">
<title>node2:f17&#45;&gt;node3</title>
<path fill="none" stroke="black" d="M38.5,-191.8C38.5,-183.35 38.5,-173.22 38.5,-163.35"/>
<polygon fill="black" stroke="black" points="42,-163.26 38.5,-153.26 35,-163.26 42,-163.26"/>
</g>
<!-- node1 -->
<g id="node4" class="node">
<title>node1</title>
<polygon fill="none" stroke="black" stroke-width="2" points="16.5,-284 16.5,-324 58.5,-324 58.5,-284 16.5,-284"/>
<text text-anchor="start" x="27.5" y="-300.2" font-family="Helvetica, Arial, sans-serif" font-size="16.00"> A </text>
<polygon fill="none" stroke="black" points="9.5,-277 9.5,-331 65.5,-331 65.5,-277 9.5,-277"/>
</g>
<!-- node1&#45;&gt;node2 -->
<g id="1" class="edge">
<title>node1:f0&#45;&gt;node2</title>
<path fill="none" stroke="black" d="M37.5,-282.8C37.5,-274.35 37.5,-264.22 37.5,-254.35"/>
<polygon fill="black" stroke="black" points="41,-254.26 37.5,-244.26 34,-254.26 41,-254.26"/>
</g>
<!-- node0 -->
<g id="node5" class="node">
<title>node0</title>
<polygon fill="none" stroke="black" stroke-width="2" points="15.5,-375 15.5,-415 58.5,-415 58.5,-375 15.5,-375"/>
<text text-anchor="start" x="26.5" y="-391.2" font-family="Helvetica, Arial, sans-serif" font-size="16.00"> H </text>
<polygon fill="none" stroke="black" points="8,-368 8,-422 65,-422 65,-368 8,-368"/>
</g>
<!-- node0&#45;&gt;node1 -->
<g id="0" class="edge">
<title>node0:f7&#45;&gt;node1</title>
<path fill="none" stroke="black" d="M37.5,-373.8C37.5,-365.35 37.5,-355.22 37.5,-345.35"/>
<polygon fill="black" stroke="black" points="41,-345.26 37.5,-335.26 34,-345.26 41,-345.26"/>
</g>
</g>
</svg>
