<?xml version="1.0" encoding="UTF-8" standalone="no"?>
<!DOCTYPE svg PUBLIC "-//W3C//DTD SVG 1.1//EN"
 "http://www.w3.org/Graphics/SVG/1.1/DTD/svg11.dtd">
<!-- Generated by graphviz version 2.42.4 (0)
 -->
<!-- Title: g Pages: 1 -->
<svg width="218pt" height="616pt"
 viewBox="0.00 0.00 218.00 616.00" xmlns="http://www.w3.org/2000/svg" xmlns:xlink="http://www.w3.org/1999/xlink">
<g id="graph0" class="graph" transform="scale(1 1) rotate(0) translate(4 612)">
<title>g</title>
<polygon fill="white" stroke="transparent" points="-4,4 -4,-612 214,-612 214,4 -4,4"/>
<!-- node10 -->
<g id="node1" class="node">
<title>node10</title>
<polygon fill="none" stroke="black" stroke-width="2" points="102.5,-102 102.5,-142 144.5,-142 144.5,-102 102.5,-102"/>
<text text-anchor="start" x="113.5" y="-118.2" font-family="Helvetica, Arial, sans-serif" font-size="16.00"> A </text>
<polygon fill="none" stroke="black" points="95.5,-95 95.5,-149 151.5,-149 151.5,-95 95.5,-95"/>
</g>
<!-- node13 -->
<g id="node11" class="node">
<title>node13</title>
<polygon fill="gray" stroke="transparent" points="101.5,-10 101.5,-52 146.5,-52 146.5,-10 101.5,-10"/>
<polygon fill="none" stroke="black" stroke-width="2" points="102.5,-11 102.5,-51 145.5,-51 145.5,-11 102.5,-11"/>
<text text-anchor="start" x="113.5" y="-27.2" font-family="Helvetica, Arial, sans-serif" font-size="16.00"> R </text>
<polygon fill="none" stroke="black" points="95,-4 95,-58 152,-58 152,-4 95,-4"/>
</g>
<!-- node10&#45;&gt;node13 -->
<g id="10" class="edge">
<title>node10:f0&#45;&gt;node13</title>
<path fill="none" stroke="black" d="M123.5,-100.8C123.5,-92.35 123.5,-82.22 123.5,-72.35"/>
<polygon fill="black" stroke="black" points="127,-72.26 123.5,-62.26 120,-72.26 127,-72.26"/>
</g>
<!-- node9 -->
<g id="node2" class="node">
<title>node9</title>
<polygon fill="gray" stroke="transparent" points="14.5,-101 14.5,-143 59.5,-143 59.5,-101 14.5,-101"/>
<polygon fill="none" stroke="black" stroke-width="2" points="15.5,-102 15.5,-142 58.5,-142 58.5,-102 15.5,-102"/>
<text text-anchor="start" x="26.5" y="-118.2" font-family="Helvetica, Arial, sans-serif" font-size="16.00"> H </text>
<polygon fill="none" stroke="black" points="8,-95 8,-149 65,-149 65,-95 8,-95"/>
</g>
<!-- node8 -->
<g id="node3" class="node">
<title>node8</title>
<polygon fill="none" stroke="black" stroke-width="2" points="102.5,-193 102.5,-233 145.5,-233 145.5,-193 102.5,-193"/>
<text text-anchor="start" x="113.5" y="-209.2" font-family="Helvetica, Arial, sans-serif" font-size="16.00"> C </text>
<polygon fill="gray" stroke="transparent" stroke-width="2" points="151.5,-192 151.5,-234 196.5,-234 196.5,-192 151.5,-192"/>
<polygon fill="none" stroke="black" stroke-width="2" points="152.5,-193 152.5,-233 195.5,-233 195.5,-193 152.5,-193"/>
<text text-anchor="start" x="163.5" y="-209.2" font-family="Helvetica, Arial, sans-serif" font-size="16.00"> R </text>
<polygon fill="none" stroke="black" points="95,-186 95,-240 202,-240 202,-186 95,-186"/>
</g>
<!-- node8&#45;&gt;node10 -->
<g id="9" class="edge">
<title>node8:f2&#45;&gt;node10</title>
<path fill="none" stroke="black" d="M123.5,-191C123.5,-181.99 123.5,-172.32 123.5,-163.17"/>
<polygon fill="black" stroke="black" points="127,-163.13 123.5,-153.13 120,-163.13 127,-163.13"/>
</g>
<!-- node7 -->
<g id="node4" class="node">
<title>node7</title>
<polygon fill="none" stroke="black" stroke-width="2" points="15.5,-193 15.5,-233 57.5,-233 57.5,-193 15.5,-193"/>
<text text-anchor="start" x="26.5" y="-209.2" font-family="Helvetica, Arial, sans-serif" font-size="16.00"> S </text>
<polygon fill="none" stroke="black" points="8.5,-186 8.5,-240 64.5,-240 64.5,-186 8.5,-186"/>
</g>
<!-- node7&#45;&gt;node9 -->
<g id="8" class="edge">
<title>node7:f18&#45;&gt;node9</title>
<path fill="none" stroke="black" d="M36.5,-191.8C36.5,-183.35 36.5,-173.22 36.5,-163.35"/>
<polygon fill="black" stroke="black" points="40,-163.26 36.5,-153.26 33,-163.26 40,-163.26"/>
</g>
<!-- node6 -->
<g id="node5" class="node">
<title>node6</title>
<polygon fill="none" stroke="black" stroke-width="2" points="125.5,-284 125.5,-324 167.5,-324 167.5,-284 125.5,-284"/>
<text text-anchor="start" x="136.5" y="-300.2" font-family="Helvetica, Arial, sans-serif" font-size="16.00"> E </text>
<polygon fill="none" stroke="black" points="118.5,-277 118.5,-331 174.5,-331 174.5,-277 118.5,-277"/>
</g>
<!-- node6&#45;&gt;node8 -->
<g id="7" class="edge">
<title>node6:f4&#45;&gt;node8</title>
<path fill="none" stroke="black" d="M146.95,-282.8C147.14,-274.35 147.37,-264.22 147.59,-254.35"/>
<polygon fill="black" stroke="black" points="151.09,-254.33 147.82,-244.26 144.1,-254.18 151.09,-254.33"/>
</g>
<!-- node5 -->
<g id="node6" class="node">
<title>node5</title>
<polygon fill="none" stroke="black" stroke-width="2" points="20.5,-284 20.5,-324 56.5,-324 56.5,-284 20.5,-284"/>
<text text-anchor="start" x="31.5" y="-300.2" font-family="Helvetica, Arial, sans-serif" font-size="16.00"> I </text>
<polygon fill="none" stroke="black" points="13.5,-277 13.5,-331 63.5,-331 63.5,-277 13.5,-277"/>
</g>
<!-- node5&#45;&gt;node7 -->
<g id="6" class="edge">
<title>node5:f8&#45;&gt;node7</title>
<path fill="none" stroke="black" d="M38.05,-282.8C37.86,-274.35 37.63,-264.22 37.41,-254.35"/>
<polygon fill="black" stroke="black" points="40.9,-254.18 37.18,-244.26 33.91,-254.33 40.9,-254.18"/>
</g>
<!-- node4 -->
<g id="node7" class="node">
<title>node4</title>
<polygon fill="none" stroke="black" stroke-width="2" points="121.5,-375 121.5,-415 164.5,-415 164.5,-375 121.5,-375"/>
<text text-anchor="start" x="132.5" y="-391.2" font-family="Helvetica, Arial, sans-serif" font-size="16.00"> C </text>
<polygon fill="none" stroke="black" points="114,-368 114,-422 171,-422 171,-368 114,-368"/>
</g>
<!-- node4&#45;&gt;node6 -->
<g id="5" class="edge">
<title>node4:f2&#45;&gt;node6</title>
<path fill="none" stroke="black" d="M144.18,-373.8C144.47,-365.35 144.81,-355.22 145.14,-345.35"/>
<polygon fill="black" stroke="black" points="148.64,-345.37 145.48,-335.26 141.65,-345.13 148.64,-345.37"/>
</g>
<!-- node3 -->
<g id="node8" class="node">
<title>node3</title>
<polygon fill="none" stroke="black" stroke-width="2" points="28.5,-375 28.5,-415 71.5,-415 71.5,-375 28.5,-375"/>
<text text-anchor="start" x="39.5" y="-391.2" font-family="Helvetica, Arial, sans-serif" font-size="16.00"> N </text>
<polygon fill="none" stroke="black" points="21,-368 21,-422 78,-422 78,-368 21,-368"/>
</g>
<!-- node3&#45;&gt;node5 -->
<g id="4" class="edge">
<title>node3:f13&#45;&gt;node5</title>
<path fill="none" stroke="black" d="M47.78,-373.8C46.64,-365.35 45.27,-355.22 43.94,-345.35"/>
<polygon fill="black" stroke="black" points="47.38,-344.7 42.58,-335.26 40.45,-345.64 47.38,-344.7"/>
</g>
<!-- node2 -->
<g id="node9" class="node">
<title>node2</title>
<polygon fill="none" stroke="black" stroke-width="2" points="114.5,-466 114.5,-506 156.5,-506 156.5,-466 114.5,-466"/>
<text text-anchor="start" x="125.5" y="-482.2" font-family="Helvetica, Arial, sans-serif" font-size="16.00"> A </text>
<polygon fill="none" stroke="black" points="107.5,-459 107.5,-513 163.5,-513 163.5,-459 107.5,-459"/>
</g>
<!-- node2&#45;&gt;node4 -->
<g id="3" class="edge">
<title>node2:f0&#45;&gt;node4</title>
<path fill="none" stroke="black" d="M137.09,-464.8C137.75,-456.35 138.55,-446.22 139.33,-436.35"/>
<polygon fill="black" stroke="black" points="142.83,-436.5 140.12,-426.26 135.85,-435.95 142.83,-436.5"/>
</g>
<!-- node1 -->
<g id="node10" class="node">
<title>node1</title>
<polygon fill="none" stroke="black" stroke-width="2" points="33.5,-466 33.5,-506 69.5,-506 69.5,-466 33.5,-466"/>
<text text-anchor="start" x="44.5" y="-482.2" font-family="Helvetica, Arial, sans-serif" font-size="16.00"> I </text>
<polygon fill="none" stroke="black" points="26.5,-459 26.5,-513 76.5,-513 76.5,-459 26.5,-459"/>
</g>
<!-- node1&#45;&gt;node3 -->
<g id="2" class="edge">
<title>node1:f8&#45;&gt;node3</title>
<path fill="none" stroke="black" d="M51.05,-464.8C50.86,-456.35 50.63,-446.22 50.41,-436.35"/>
<polygon fill="black" stroke="black" points="53.9,-436.18 50.18,-426.26 46.91,-436.33 53.9,-436.18"/>
</g>
<!-- node0 -->
<g id="node12" class="node">
<title>node0</title>
<polygon fill="none" stroke="black" stroke-width="2" points="47.5,-557 47.5,-597 88.5,-597 88.5,-557 47.5,-557"/>
<text text-anchor="start" x="58.5" y="-573.2" font-family="Helvetica, Arial, sans-serif" font-size="16.00"> F </text>
<polygon fill="none" stroke="black" stroke-width="2" points="95.5,-557 95.5,-597 138.5,-597 138.5,-557 95.5,-557"/>
<text text-anchor="start" x="106.5" y="-573.2" font-family="Helvetica, Arial, sans-serif" font-size="16.00"> R </text>
<polygon fill="none" stroke="black" points="40,-550 40,-604 145,-604 145,-550 40,-550"/>
</g>
<!-- node0&#45;&gt;node2 -->
<g id="1" class="edge">
<title>node0:f17&#45;&gt;node2</title>
<path fill="none" stroke="black" d="M117.5,-555C117.5,-545.67 119.1,-535.86 121.35,-526.68"/>
<polygon fill="black" stroke="black" points="124.73,-527.59 124,-517.02 117.98,-525.74 124.73,-527.59"/>
</g>
<!-- node0&#45;&gt;node1 -->
<g id="0" class="edge">
<title>node0:f5&#45;&gt;node1</title>
<path fill="none" stroke="black" d="M67.5,-555C67.5,-545.84 66.11,-536.16 64.14,-527.07"/>
<polygon fill="black" stroke="black" points="67.48,-526 61.72,-517.11 60.68,-527.65 67.48,-526"/>
</g>
</g>
</svg>
