<?xml version="1.0" encoding="UTF-8" standalone="no"?>
<!DOCTYPE svg PUBLIC "-//W3C//DTD SVG 1.1//EN"
 "http://www.w3.org/Graphics/SVG/1.1/DTD/svg11.dtd">
<!-- Generated by graphviz version 2.42.4 (0)
 -->
<!-- Title: g Pages: 1 -->
<svg width="171pt" height="392pt"
 viewBox="0.00 0.00 171.13 392.00" xmlns="http://www.w3.org/2000/svg" xmlns:xlink="http://www.w3.org/1999/xlink">
<g id="graph0" class="graph" transform="scale(1 1) rotate(0) translate(4 388)">
<title>g</title>
<polygon fill="white" stroke="transparent" points="-4,4 -4,-388 167.13,-388 167.13,4 -4,4"/>
<!-- node4 -->
<g id="node1" class="node">
<title>node4</title>
<polygon fill="none" stroke="black" points="14.78,-65.5 14.78,-107.5 68.78,-107.5 68.78,-65.5 14.78,-65.5"/>
<text text-anchor="middle" x="41.78" y="-93.9" font-family="Helvetica,Arial,sans-serif" font-size="12.00">E</text>
<polyline fill="none" stroke="black" points="14.78,-86.5 68.78,-86.5 "/>
<text text-anchor="middle" x="41.78" y="-72.9" font-family="Helvetica,Arial,sans-serif" font-size="12.00">E</text>
</g>
<!-- NULL_NODE -->
<g id="node6" class="node">
<title>NULL_NODE</title>
<polygon fill="none" stroke="black" points="129.78,-36 75.78,-36 75.78,0 129.78,0 129.78,-36"/>
<text text-anchor="middle" x="102.78" y="-14.9" font-family="Helvetica,Arial,sans-serif" font-size="12.00">END</text>
</g>
<!-- node4&#45;&gt;NULL_NODE -->
<g id="edge8" class="edge">
<title>node4:f4&#45;&gt;NULL_NODE</title>
<path fill="none" stroke="black" d="M69.78,-97.5C84.89,-97.5 74.16,-79.03 79.78,-65 82.41,-58.43 85.62,-51.52 88.79,-45.1"/>
<polygon fill="black" stroke="black" points="91.93,-46.66 93.35,-36.16 85.69,-43.48 91.93,-46.66"/>
</g>
<!-- node5 -->
<g id="node7" class="node">
<title>node5</title>
<ellipse fill="none" stroke="black" cx="30.78" cy="-18" rx="30.56" ry="18"/>
<text text-anchor="middle" x="30.78" y="-14.9" font-family="Helvetica,Arial,sans-serif" font-size="12.00">node5</text>
</g>
<!-- node4&#45;&gt;node5 -->
<g id="4" class="edge">
<title>node4:f4&#45;&gt;node5</title>
<path fill="none" stroke="black" d="M13.78,-97.5C-8.4,-97.5 3.55,-67.19 15.78,-44.23"/>
<polygon fill="black" stroke="black" points="18.96,-45.71 20.76,-35.27 12.84,-42.31 18.96,-45.71"/>
</g>
<!-- node3 -->
<g id="node2" class="node">
<title>node3</title>
<polygon fill="none" stroke="black" points="44.78,-137.5 44.78,-179.5 98.78,-179.5 98.78,-137.5 44.78,-137.5"/>
<text text-anchor="middle" x="71.78" y="-165.9" font-family="Helvetica,Arial,sans-serif" font-size="12.00">D</text>
<polyline fill="none" stroke="black" points="44.78,-158.5 98.78,-158.5 "/>
<text text-anchor="middle" x="71.78" y="-144.9" font-family="Helvetica,Arial,sans-serif" font-size="12.00">D</text>
</g>
<!-- node3&#45;&gt;node4 -->
<g id="3" class="edge">
<title>node3:f3&#45;&gt;node4</title>
<path fill="none" stroke="black" d="M43.78,-169.5C22.22,-169.5 25.46,-140.83 31.71,-117.39"/>
<polygon fill="black" stroke="black" points="35.07,-118.35 34.5,-107.77 28.35,-116.4 35.07,-118.35"/>
</g>
<!-- node3&#45;&gt;NULL_NODE -->
<g id="edge6" class="edge">
<title>node3:f3&#45;&gt;NULL_NODE</title>
<path fill="none" stroke="black" d="M99.78,-169.5C111.95,-169.5 108,-89.87 104.94,-46.45"/>
<polygon fill="black" stroke="black" points="108.42,-45.98 104.2,-36.26 101.44,-46.49 108.42,-45.98"/>
</g>
<!-- node2 -->
<g id="node3" class="node">
<title>node2</title>
<polygon fill="none" stroke="black" points="68.78,-209.5 68.78,-251.5 122.78,-251.5 122.78,-209.5 68.78,-209.5"/>
<text text-anchor="middle" x="95.78" y="-237.9" font-family="Helvetica,Arial,sans-serif" font-size="12.00">C</text>
<polyline fill="none" stroke="black" points="68.78,-230.5 122.78,-230.5 "/>
<text text-anchor="middle" x="95.78" y="-216.9" font-family="Helvetica,Arial,sans-serif" font-size="12.00">C</text>
</g>
<!-- node2&#45;&gt;node3 -->
<g id="2" class="edge">
<title>node2:f2&#45;&gt;node3</title>
<path fill="none" stroke="black" d="M67.78,-241.5C46.2,-241.5 51.54,-212.83 59.51,-189.39"/>
<polygon fill="black" stroke="black" points="62.88,-190.36 63.01,-179.77 56.3,-187.97 62.88,-190.36"/>
</g>
<!-- node2&#45;&gt;NULL_NODE -->
<g id="edge4" class="edge">
<title>node2:f2&#45;&gt;NULL_NODE</title>
<path fill="none" stroke="black" d="M123.78,-241.5C201.88,-241.5 144.18,-103.93 115.95,-45.14"/>
<polygon fill="black" stroke="black" points="119.06,-43.54 111.53,-36.09 112.77,-46.61 119.06,-43.54"/>
</g>
<!-- node1 -->
<g id="node4" class="node">
<title>node1</title>
<polygon fill="none" stroke="black" points="68.78,-281.5 68.78,-317.5 122.78,-317.5 122.78,-281.5 68.78,-281.5"/>
<text text-anchor="middle" x="95.78" y="-296.4" font-family="Helvetica,Arial,sans-serif" font-size="12.00">B</text>
</g>
<!-- node1&#45;&gt;node2 -->
<g id="1" class="edge">
<title>node1:f1&#45;&gt;node2</title>
<path fill="none" stroke="black" d="M95.78,-281.28C95.78,-275.29 95.78,-268.46 95.78,-261.82"/>
<polygon fill="black" stroke="black" points="99.28,-261.69 95.78,-251.69 92.28,-261.69 99.28,-261.69"/>
</g>
<!-- node0 -->
<g id="node5" class="node">
<title>node0</title>
<polygon fill="none" stroke="black" points="68.78,-347.5 68.78,-383.5 122.78,-383.5 122.78,-347.5 68.78,-347.5"/>
<text text-anchor="middle" x="95.78" y="-362.4" font-family="Helvetica,Arial,sans-serif" font-size="12.00">A</text>
</g>
<!-- node0&#45;&gt;node1 -->
<g id="0" class="edge">
<title>node0:f0&#45;&gt;node1</title>
<path fill="none" stroke="black" d="M95.78,-347.39C95.78,-341.28 95.78,-334.32 95.78,-327.66"/>
<polygon fill="black" stroke="black" points="99.28,-327.62 95.78,-317.62 92.28,-327.62 99.28,-327.62"/>
</g>
</g>
</svg>
