<?xml version="1.0" encoding="UTF-8" standalone="no"?>
<!DOCTYPE svg PUBLIC "-//W3C//DTD SVG 1.1//EN"
 "http://www.w3.org/Graphics/SVG/1.1/DTD/svg11.dtd">
<!-- Generated by graphviz version 2.42.4 (0)
 -->
<!-- Title: g Pages: 1 -->
<svg width="278pt" height="765pt"
 viewBox="0.00 0.00 278.09 765.00" xmlns="http://www.w3.org/2000/svg" xmlns:xlink="http://www.w3.org/1999/xlink">
<g id="graph0" class="graph" transform="scale(1 1) rotate(0) translate(4 761)">
<title>g</title>
<polygon fill="white" stroke="transparent" points="-4,4 -4,-761 274.09,-761 274.09,4 -4,4"/>
<!-- node10 -->
<g id="node1" class="node">
<title>node10</title>
<polygon fill="none" stroke="black" stroke-width="2" points="116,-179 116,-231 171,-231 171,-179 116,-179"/>
<text text-anchor="start" x="132" y="-200.6" font-family="Helvetica, Arial, sans-serif" font-size="18.00"> A </text>
<polygon fill="none" stroke="black" points="108.5,-172 108.5,-238 177.5,-238 177.5,-172 108.5,-172"/>
</g>
<!-- node13 -->
<g id="node11" class="node">
<title>node13</title>
<polygon fill="none" stroke="black" stroke-width="2" points="116,-76 116,-128 172,-128 172,-76 116,-76"/>
<text text-anchor="start" x="132" y="-97.6" font-family="Helvetica, Arial, sans-serif" font-size="18.00"> R </text>
<polygon fill="none" stroke="black" points="109,-69 109,-135 179,-135 179,-69 109,-69"/>
</g>
<!-- node10&#45;&gt;node13 -->
<g id="12" class="edge">
<title>node10:f0&#45;&gt;node13</title>
<path fill="none" stroke="black" d="M144,-177.99C144,-169.23 144,-159.17 144,-149.32"/>
<polygon fill="black" stroke="black" points="147.5,-149.2 144,-139.2 140.5,-149.2 147.5,-149.2"/>
</g>
<!-- node9 -->
<g id="node2" class="node">
<title>node9</title>
<polygon fill="none" stroke="black" stroke-width="2" points="15,-179 15,-231 71,-231 71,-179 15,-179"/>
<text text-anchor="start" x="31" y="-200.6" font-family="Helvetica, Arial, sans-serif" font-size="18.00"> H </text>
<polygon fill="none" stroke="black" points="8,-172 8,-238 78,-238 78,-172 8,-172"/>
</g>
<!-- node12 -->
<g id="node14" class="node">
<title>node12</title>
<ellipse fill="none" stroke="black" cx="43" cy="-102" rx="35.18" ry="18"/>
<text text-anchor="middle" x="43" y="-98.9" font-family="Helvetica, Arial, sans-serif" font-size="12.00">node12</text>
</g>
<!-- node9&#45;&gt;node12 -->
<g id="11" class="edge">
<title>node9:f7&#45;&gt;node12</title>
<path fill="none" stroke="black" d="M43,-177.99C43,-163.32 43,-145 43,-130.15"/>
<polygon fill="black" stroke="black" points="46.5,-130.04 43,-120.04 39.5,-130.04 46.5,-130.04"/>
</g>
<!-- node8 -->
<g id="node3" class="node">
<title>node8</title>
<polygon fill="none" stroke="black" stroke-width="2" points="115,-282 115,-334 171,-334 171,-282 115,-282"/>
<text text-anchor="start" x="131" y="-303.6" font-family="Helvetica, Arial, sans-serif" font-size="18.00"> C </text>
<polygon fill="none" stroke="black" stroke-width="2" points="178,-282 178,-334 234,-334 234,-282 178,-282"/>
<text text-anchor="start" x="194" y="-303.6" font-family="Helvetica, Arial, sans-serif" font-size="18.00"> R </text>
<polygon fill="none" stroke="black" points="107.5,-275 107.5,-341 240.5,-341 240.5,-275 107.5,-275"/>
</g>
<!-- node8&#45;&gt;node10 -->
<g id="9" class="edge">
<title>node8:f2&#45;&gt;node10</title>
<path fill="none" stroke="black" d="M143,-280C143,-271.04 143,-261.47 143,-252.28"/>
<polygon fill="black" stroke="black" points="146.5,-252.13 143,-242.13 139.5,-252.13 146.5,-252.13"/>
</g>
<!-- node11 -->
<g id="node13" class="node">
<title>node11</title>
<ellipse fill="none" stroke="black" cx="235" cy="-205" rx="35.18" ry="18"/>
<text text-anchor="middle" x="235" y="-201.9" font-family="Helvetica, Arial, sans-serif" font-size="12.00">node11</text>
</g>
<!-- node8&#45;&gt;node11 -->
<g id="10" class="edge">
<title>node8:f17&#45;&gt;node11</title>
<path fill="none" stroke="black" d="M206,-280C206,-262.96 212.75,-245.14 219.74,-231.26"/>
<polygon fill="black" stroke="black" points="222.88,-232.8 224.53,-222.33 216.71,-229.48 222.88,-232.8"/>
</g>
<!-- node7 -->
<g id="node4" class="node">
<title>node7</title>
<polygon fill="none" stroke="black" stroke-width="2" points="16,-282 16,-334 71,-334 71,-282 16,-282"/>
<text text-anchor="start" x="32" y="-303.6" font-family="Helvetica, Arial, sans-serif" font-size="18.00"> S </text>
<polygon fill="none" stroke="black" points="8.5,-275 8.5,-341 77.5,-341 77.5,-275 8.5,-275"/>
</g>
<!-- node7&#45;&gt;node9 -->
<g id="8" class="edge">
<title>node7:f18&#45;&gt;node9</title>
<path fill="none" stroke="black" d="M43.74,-280.99C43.66,-272.23 43.56,-262.17 43.46,-252.32"/>
<polygon fill="black" stroke="black" points="46.96,-252.16 43.36,-242.2 39.96,-252.23 46.96,-252.16"/>
</g>
<!-- node6 -->
<g id="node5" class="node">
<title>node6</title>
<polygon fill="none" stroke="black" stroke-width="2" points="144,-385 144,-437 199,-437 199,-385 144,-385"/>
<text text-anchor="start" x="160" y="-406.6" font-family="Helvetica, Arial, sans-serif" font-size="18.00"> E </text>
<polygon fill="none" stroke="black" points="136.5,-378 136.5,-444 205.5,-444 205.5,-378 136.5,-378"/>
</g>
<!-- node6&#45;&gt;node8 -->
<g id="7" class="edge">
<title>node6:f4&#45;&gt;node8</title>
<path fill="none" stroke="black" d="M172.52,-383.99C172.69,-375.23 172.89,-365.17 173.08,-355.32"/>
<polygon fill="black" stroke="black" points="176.58,-355.27 173.28,-345.2 169.59,-355.13 176.58,-355.27"/>
</g>
<!-- node5 -->
<g id="node6" class="node">
<title>node5</title>
<polygon fill="none" stroke="black" stroke-width="2" points="34,-385 34,-437 82,-437 82,-385 34,-385"/>
<text text-anchor="start" x="50" y="-406.6" font-family="Helvetica, Arial, sans-serif" font-size="18.00"> I </text>
<polygon fill="none" stroke="black" points="27,-378 27,-444 89,-444 89,-378 27,-378"/>
</g>
<!-- node5&#45;&gt;node7 -->
<g id="6" class="edge">
<title>node5:f8&#45;&gt;node7</title>
<path fill="none" stroke="black" d="M54.14,-383.99C52.84,-375.23 51.34,-365.17 49.88,-355.32"/>
<polygon fill="black" stroke="black" points="53.31,-354.58 48.38,-345.2 46.38,-355.6 53.31,-354.58"/>
</g>
<!-- node4 -->
<g id="node7" class="node">
<title>node4</title>
<polygon fill="none" stroke="black" stroke-width="2" points="141,-488 141,-540 197,-540 197,-488 141,-488"/>
<text text-anchor="start" x="157" y="-509.6" font-family="Helvetica, Arial, sans-serif" font-size="18.00"> C </text>
<polygon fill="none" stroke="black" points="134,-481 134,-547 204,-547 204,-481 134,-481"/>
</g>
<!-- node4&#45;&gt;node6 -->
<g id="5" class="edge">
<title>node4:f2&#45;&gt;node6</title>
<path fill="none" stroke="black" d="M169.52,-486.99C169.69,-478.23 169.89,-468.17 170.08,-458.32"/>
<polygon fill="black" stroke="black" points="173.58,-458.27 170.28,-448.2 166.59,-458.13 173.58,-458.27"/>
</g>
<!-- node3 -->
<g id="node8" class="node">
<title>node3</title>
<polygon fill="none" stroke="black" stroke-width="2" points="37,-488 37,-540 93,-540 93,-488 37,-488"/>
<text text-anchor="start" x="53" y="-509.6" font-family="Helvetica, Arial, sans-serif" font-size="18.00"> N </text>
<polygon fill="none" stroke="black" points="30,-481 30,-547 100,-547 100,-481 30,-481"/>
</g>
<!-- node3&#45;&gt;node5 -->
<g id="4" class="edge">
<title>node3:f13&#45;&gt;node5</title>
<path fill="none" stroke="black" d="M63.2,-486.99C62.59,-478.23 61.89,-468.17 61.21,-458.32"/>
<polygon fill="black" stroke="black" points="64.69,-457.93 60.51,-448.2 57.71,-458.42 64.69,-457.93"/>
</g>
<!-- node2 -->
<g id="node9" class="node">
<title>node2</title>
<polygon fill="none" stroke="black" stroke-width="2" points="136,-591 136,-643 191,-643 191,-591 136,-591"/>
<text text-anchor="start" x="152" y="-612.6" font-family="Helvetica, Arial, sans-serif" font-size="18.00"> A </text>
<polygon fill="none" stroke="black" points="128.5,-584 128.5,-650 197.5,-650 197.5,-584 128.5,-584"/>
</g>
<!-- node2&#45;&gt;node4 -->
<g id="3" class="edge">
<title>node2:f0&#45;&gt;node4</title>
<path fill="none" stroke="black" d="M165.29,-589.99C165.72,-581.23 166.22,-571.17 166.71,-561.32"/>
<polygon fill="black" stroke="black" points="170.21,-561.36 167.21,-551.2 163.22,-561.01 170.21,-561.36"/>
</g>
<!-- node1 -->
<g id="node10" class="node">
<title>node1</title>
<polygon fill="none" stroke="black" stroke-width="2" points="42,-591 42,-643 90,-643 90,-591 42,-591"/>
<text text-anchor="start" x="58" y="-612.6" font-family="Helvetica, Arial, sans-serif" font-size="18.00"> I </text>
<polygon fill="none" stroke="black" points="35,-584 35,-650 97,-650 97,-584 35,-584"/>
</g>
<!-- node1&#45;&gt;node3 -->
<g id="2" class="edge">
<title>node1:f8&#45;&gt;node3</title>
<path fill="none" stroke="black" d="M65.74,-589.99C65.66,-581.23 65.56,-571.17 65.46,-561.32"/>
<polygon fill="black" stroke="black" points="68.96,-561.16 65.36,-551.2 61.96,-561.23 68.96,-561.16"/>
</g>
<!-- node14 -->
<g id="node15" class="node">
<title>node14</title>
<ellipse fill="none" stroke="black" cx="144" cy="-18" rx="35.18" ry="18"/>
<text text-anchor="middle" x="144" y="-14.9" font-family="Helvetica, Arial, sans-serif" font-size="12.00">node14</text>
</g>
<!-- node13&#45;&gt;node14 -->
<g id="13" class="edge">
<title>node13:f17&#45;&gt;node14</title>
<path fill="none" stroke="black" d="M144,-74.6C144,-65.58 144,-55.48 144,-46.39"/>
<polygon fill="black" stroke="black" points="147.5,-46.3 144,-36.3 140.5,-46.3 147.5,-46.3"/>
</g>
<!-- node0 -->
<g id="node12" class="node">
<title>node0</title>
<polygon fill="none" stroke="black" stroke-width="2" points="56,-694 56,-746 110,-746 110,-694 56,-694"/>
<text text-anchor="start" x="72" y="-715.6" font-family="Helvetica, Arial, sans-serif" font-size="18.00"> F </text>
<polygon fill="none" stroke="black" stroke-width="2" points="117,-694 117,-746 173,-746 173,-694 117,-694"/>
<text text-anchor="start" x="133" y="-715.6" font-family="Helvetica, Arial, sans-serif" font-size="18.00"> R </text>
<polygon fill="none" stroke="black" points="48.5,-687 48.5,-753 179.5,-753 179.5,-687 48.5,-687"/>
</g>
<!-- node0&#45;&gt;node2 -->
<g id="1" class="edge">
<title>node0:f17&#45;&gt;node2</title>
<path fill="none" stroke="black" d="M145,-692C145,-682.78 146.34,-673.08 148.28,-663.86"/>
<polygon fill="black" stroke="black" points="151.7,-664.62 150.6,-654.09 144.89,-663.01 151.7,-664.62"/>
</g>
<!-- node0&#45;&gt;node1 -->
<g id="0" class="edge">
<title>node0:f5&#45;&gt;node1</title>
<path fill="none" stroke="black" d="M83,-692C83,-682.8 81.74,-673.12 79.9,-663.91"/>
<polygon fill="black" stroke="black" points="83.31,-663.13 77.71,-654.13 76.48,-664.66 83.31,-663.13"/>
</g>
</g>
</svg>
