<?xml version="1.0" encoding="UTF-8" standalone="no"?>
<!DOCTYPE svg PUBLIC "-//W3C//DTD SVG 1.1//EN"
 "http://www.w3.org/Graphics/SVG/1.1/DTD/svg11.dtd">
<!-- Generated by graphviz version 2.42.4 (0)
 -->
<!-- Title: g Pages: 1 -->
<svg width="138pt" height="374pt"
 viewBox="0.00 0.00 137.78 374.00" xmlns="http://www.w3.org/2000/svg" xmlns:xlink="http://www.w3.org/1999/xlink">
<g id="graph0" class="graph" transform="scale(1 1) rotate(0) translate(4 370)">
<title>g</title>
<polygon fill="white" stroke="transparent" points="-4,4 -4,-370 133.78,-370 133.78,4 -4,4"/>
<!-- node4 -->
<g id="node1" class="node">
<title>node4</title>
<polygon fill="none" stroke="black" points="14.78,-65.5 14.78,-101.5 68.78,-101.5 68.78,-65.5 14.78,-65.5"/>
<text text-anchor="middle" x="41.78" y="-80.4" font-family="Helvetica,Arial,sans-serif" font-size="12.00">E</text>
</g>
<!-- NULL_NODE -->
<g id="node6" class="node">
<title>NULL_NODE</title>
<polygon fill="none" stroke="black" points="129.78,-36 75.78,-36 75.78,0 129.78,0 129.78,-36"/>
<text text-anchor="middle" x="102.78" y="-14.9" font-family="Helvetica,Arial,sans-serif" font-size="12.00">END</text>
</g>
<!-- node4&#45;&gt;NULL_NODE -->
<g id="edge8" class="edge">
<title>node4:f4&#45;&gt;NULL_NODE</title>
<path fill="none" stroke="black" d="M59.1,-65.19C65.41,-58.52 72.65,-50.86 79.4,-43.72"/>
<polygon fill="black" stroke="black" points="82.14,-45.92 86.47,-36.25 77.05,-41.11 82.14,-45.92"/>
</g>
<!-- node5 -->
<g id="node7" class="node">
<title>node5</title>
<ellipse fill="none" stroke="black" cx="30.78" cy="-18" rx="30.56" ry="18"/>
<text text-anchor="middle" x="30.78" y="-14.9" font-family="Helvetica,Arial,sans-serif" font-size="12.00">node5</text>
</g>
<!-- node4&#45;&gt;node5 -->
<g id="4" class="edge">
<title>node4:f4&#45;&gt;node5</title>
<path fill="none" stroke="black" d="M38.66,-65.19C37.66,-59.37 36.54,-52.8 35.46,-46.47"/>
<polygon fill="black" stroke="black" points="38.85,-45.52 33.72,-36.25 31.95,-46.69 38.85,-45.52"/>
</g>
<!-- node3 -->
<g id="node2" class="node">
<title>node3</title>
<polygon fill="none" stroke="black" points="44.78,-131.5 44.78,-167.5 98.78,-167.5 98.78,-131.5 44.78,-131.5"/>
<text text-anchor="middle" x="71.78" y="-146.4" font-family="Helvetica,Arial,sans-serif" font-size="12.00">D</text>
</g>
<!-- node3&#45;&gt;node4 -->
<g id="3" class="edge">
<title>node3:f3&#45;&gt;node4</title>
<path fill="none" stroke="black" d="M63.42,-131.39C60.47,-124.99 57.08,-117.65 53.88,-110.71"/>
<polygon fill="black" stroke="black" points="57.05,-109.23 49.68,-101.62 50.69,-112.16 57.05,-109.23"/>
</g>
<!-- node3&#45;&gt;NULL_NODE -->
<g id="edge6" class="edge">
<title>node3:f3&#45;&gt;NULL_NODE</title>
<path fill="none" stroke="black" d="M76.09,-131.35C81.35,-109.2 90.3,-71.52 96.37,-45.96"/>
<polygon fill="black" stroke="black" points="99.8,-46.7 98.7,-36.16 92.99,-45.08 99.8,-46.7"/>
</g>
<!-- node2 -->
<g id="node3" class="node">
<title>node2</title>
<polygon fill="none" stroke="black" points="68.78,-197.5 68.78,-233.5 122.78,-233.5 122.78,-197.5 68.78,-197.5"/>
<text text-anchor="middle" x="95.78" y="-212.4" font-family="Helvetica,Arial,sans-serif" font-size="12.00">C</text>
</g>
<!-- node2&#45;&gt;node3 -->
<g id="2" class="edge">
<title>node2:f2&#45;&gt;node3</title>
<path fill="none" stroke="black" d="M89.09,-197.39C86.78,-191.13 84.14,-183.98 81.63,-177.18"/>
<polygon fill="black" stroke="black" points="84.85,-175.78 78.1,-167.62 78.28,-178.21 84.85,-175.78"/>
</g>
<!-- node2&#45;&gt;NULL_NODE -->
<g id="edge4" class="edge">
<title>node2:f2&#45;&gt;NULL_NODE</title>
<path fill="none" stroke="black" d="M100.57,-197.14C102.62,-188.39 104.77,-177.72 105.78,-168 110.19,-125.6 107.68,-76.06 105.33,-46.13"/>
<polygon fill="black" stroke="black" points="108.81,-45.71 104.49,-36.04 101.83,-46.3 108.81,-45.71"/>
</g>
<!-- node1 -->
<g id="node4" class="node">
<title>node1</title>
<polygon fill="none" stroke="black" points="68.78,-263.5 68.78,-299.5 122.78,-299.5 122.78,-263.5 68.78,-263.5"/>
<text text-anchor="middle" x="95.78" y="-278.4" font-family="Helvetica,Arial,sans-serif" font-size="12.00">B</text>
</g>
<!-- node1&#45;&gt;node2 -->
<g id="1" class="edge">
<title>node1:f1&#45;&gt;node2</title>
<path fill="none" stroke="black" d="M95.78,-263.39C95.78,-257.28 95.78,-250.32 95.78,-243.66"/>
<polygon fill="black" stroke="black" points="99.28,-243.62 95.78,-233.62 92.28,-243.62 99.28,-243.62"/>
</g>
<!-- node0 -->
<g id="node5" class="node">
<title>node0</title>
<polygon fill="none" stroke="black" points="68.78,-329.5 68.78,-365.5 122.78,-365.5 122.78,-329.5 68.78,-329.5"/>
<text text-anchor="middle" x="95.78" y="-344.4" font-family="Helvetica,Arial,sans-serif" font-size="12.00">A</text>
</g>
<!-- node0&#45;&gt;node1 -->
<g id="0" class="edge">
<title>node0:f0&#45;&gt;node1</title>
<path fill="none" stroke="black" d="M95.78,-329.39C95.78,-323.28 95.78,-316.32 95.78,-309.66"/>
<polygon fill="black" stroke="black" points="99.28,-309.62 95.78,-299.62 92.28,-309.62 99.28,-309.62"/>
</g>
</g>
</svg>
