<?xml version="1.0" encoding="UTF-8" standalone="no"?>
<!DOCTYPE svg PUBLIC "-//W3C//DTD SVG 1.1//EN"
 "http://www.w3.org/Graphics/SVG/1.1/DTD/svg11.dtd">
<!-- Generated by graphviz version 2.42.4 (0)
 -->
<!-- Title: g Pages: 1 -->
<svg width="230pt" height="518pt"
 viewBox="0.00 0.00 230.18 518.00" xmlns="http://www.w3.org/2000/svg" xmlns:xlink="http://www.w3.org/1999/xlink">
<g id="graph0" class="graph" transform="scale(1 1) rotate(0) translate(4 514)">
<title>g</title>
<polygon fill="white" stroke="transparent" points="-4,4 -4,-514 226.18,-514 226.18,4 -4,4"/>
<!-- node10 -->
<g id="node1" class="node">
<title>node10</title>
<polygon fill="none" stroke="black" points="8.09,-131.5 8.09,-167.5 62.09,-167.5 62.09,-131.5 8.09,-131.5"/>
<text text-anchor="middle" x="35.09" y="-146.4" font-family="Helvetica,Arial,sans-serif" font-size="12.00">A</text>
</g>
<!-- node13 -->
<g id="node11" class="node">
<title>node13</title>
<polygon fill="lightgrey" stroke="black" points="8.09,-65.5 8.09,-101.5 62.09,-101.5 62.09,-65.5 8.09,-65.5"/>
<text text-anchor="middle" x="35.09" y="-80.4" font-family="Helvetica,Arial,sans-serif" font-size="12.00">R</text>
</g>
<!-- node10&#45;&gt;node13 -->
<g id="12" class="edge">
<title>node10:f0&#45;&gt;node13</title>
<path fill="none" stroke="black" d="M35.09,-131.39C35.09,-125.28 35.09,-118.32 35.09,-111.66"/>
<polygon fill="black" stroke="black" points="38.59,-111.62 35.09,-101.62 31.59,-111.62 38.59,-111.62"/>
</g>
<!-- node9 -->
<g id="node2" class="node">
<title>node9</title>
<polygon fill="lightgrey" stroke="black" points="160.09,-131.5 160.09,-167.5 214.09,-167.5 214.09,-131.5 160.09,-131.5"/>
<text text-anchor="middle" x="187.09" y="-146.4" font-family="Helvetica,Arial,sans-serif" font-size="12.00">H</text>
</g>
<!-- node12 -->
<g id="node14" class="node">
<title>node12</title>
<ellipse fill="none" stroke="black" cx="187.09" cy="-83.5" rx="35.18" ry="18"/>
<text text-anchor="middle" x="187.09" y="-80.4" font-family="Helvetica,Arial,sans-serif" font-size="12.00">node12</text>
</g>
<!-- node9&#45;&gt;node12 -->
<g id="11" class="edge">
<title>node9:f7&#45;&gt;node12</title>
<path fill="none" stroke="black" d="M187.09,-131.39C187.09,-125.28 187.09,-118.32 187.09,-111.66"/>
<polygon fill="black" stroke="black" points="190.59,-111.62 187.09,-101.62 183.59,-111.62 190.59,-111.62"/>
</g>
<!-- node8 -->
<g id="node3" class="node">
<title>node8</title>
<polygon fill="lightgrey" stroke="black" points="84.09,-197.5 84.09,-239.5 138.09,-239.5 138.09,-197.5 84.09,-197.5"/>
<text text-anchor="middle" x="111.09" y="-225.9" font-family="Helvetica,Arial,sans-serif" font-size="12.00">C</text>
<polyline fill="none" stroke="black" points="84.09,-218.5 138.09,-218.5 "/>
<text text-anchor="middle" x="111.09" y="-204.9" font-family="Helvetica,Arial,sans-serif" font-size="12.00">R</text>
</g>
<!-- node8&#45;&gt;node10 -->
<g id="9" class="edge">
<title>node8:f2&#45;&gt;node10</title>
<path fill="none" stroke="black" d="M83.09,-229.5C58.18,-229.5 45.83,-200.45 39.97,-177.59"/>
<polygon fill="black" stroke="black" points="43.33,-176.62 37.71,-167.64 36.51,-178.17 43.33,-176.62"/>
</g>
<!-- node11 -->
<g id="node13" class="node">
<title>node11</title>
<ellipse fill="none" stroke="black" cx="111.09" cy="-149.5" rx="35.18" ry="18"/>
<text text-anchor="middle" x="111.09" y="-146.4" font-family="Helvetica,Arial,sans-serif" font-size="12.00">node11</text>
</g>
<!-- node8&#45;&gt;node11 -->
<g id="10" class="edge">
<title>node8:f17&#45;&gt;node11</title>
<path fill="none" stroke="black" d="M111.09,-197C111.09,-190.79 111.09,-184.12 111.09,-177.82"/>
<polygon fill="black" stroke="black" points="114.59,-177.72 111.09,-167.72 107.59,-177.72 114.59,-177.72"/>
</g>
<!-- node7 -->
<g id="node4" class="node">
<title>node7</title>
<polygon fill="none" stroke="black" points="159.09,-200.5 159.09,-236.5 213.09,-236.5 213.09,-200.5 159.09,-200.5"/>
<text text-anchor="middle" x="186.09" y="-215.4" font-family="Helvetica,Arial,sans-serif" font-size="12.00">S</text>
</g>
<!-- node7&#45;&gt;node9 -->
<g id="8" class="edge">
<title>node7:f18&#45;&gt;node9</title>
<path fill="none" stroke="black" d="M186.36,-200.28C186.46,-193.43 186.57,-185.49 186.68,-177.99"/>
<polygon fill="black" stroke="black" points="190.19,-177.89 186.83,-167.84 183.19,-177.78 190.19,-177.89"/>
</g>
<!-- node6 -->
<g id="node5" class="node">
<title>node6</title>
<polygon fill="none" stroke="black" points="88.09,-269.5 88.09,-305.5 142.09,-305.5 142.09,-269.5 88.09,-269.5"/>
<text text-anchor="middle" x="115.09" y="-284.4" font-family="Helvetica,Arial,sans-serif" font-size="12.00">E</text>
</g>
<!-- node6&#45;&gt;node8 -->
<g id="7" class="edge">
<title>node6:f4&#45;&gt;node8</title>
<path fill="none" stroke="black" d="M114.02,-269.28C113.66,-263.29 113.26,-256.46 112.87,-249.82"/>
<polygon fill="black" stroke="black" points="116.36,-249.47 112.28,-239.69 109.37,-249.88 116.36,-249.47"/>
</g>
<!-- node5 -->
<g id="node6" class="node">
<title>node5</title>
<polygon fill="none" stroke="black" points="159.09,-269.5 159.09,-305.5 213.09,-305.5 213.09,-269.5 159.09,-269.5"/>
<text text-anchor="middle" x="186.09" y="-284.4" font-family="Helvetica,Arial,sans-serif" font-size="12.00">I</text>
</g>
<!-- node5&#45;&gt;node7 -->
<g id="6" class="edge">
<title>node5:f8&#45;&gt;node7</title>
<path fill="none" stroke="black" d="M186.09,-269.28C186.09,-262.43 186.09,-254.49 186.09,-246.99"/>
<polygon fill="black" stroke="black" points="189.59,-246.84 186.09,-236.84 182.59,-246.84 189.59,-246.84"/>
</g>
<!-- node4 -->
<g id="node7" class="node">
<title>node4</title>
<polygon fill="none" stroke="black" points="90.09,-335.5 90.09,-371.5 144.09,-371.5 144.09,-335.5 90.09,-335.5"/>
<text text-anchor="middle" x="117.09" y="-350.4" font-family="Helvetica,Arial,sans-serif" font-size="12.00">C</text>
</g>
<!-- node4&#45;&gt;node6 -->
<g id="5" class="edge">
<title>node4:f2&#45;&gt;node6</title>
<path fill="none" stroke="black" d="M116.53,-335.39C116.34,-329.28 116.13,-322.32 115.92,-315.66"/>
<polygon fill="black" stroke="black" points="119.42,-315.5 115.62,-305.62 112.42,-315.72 119.42,-315.5"/>
</g>
<!-- node3 -->
<g id="node8" class="node">
<title>node3</title>
<polygon fill="none" stroke="black" points="159.09,-335.5 159.09,-371.5 213.09,-371.5 213.09,-335.5 159.09,-335.5"/>
<text text-anchor="middle" x="186.09" y="-350.4" font-family="Helvetica,Arial,sans-serif" font-size="12.00">N</text>
</g>
<!-- node3&#45;&gt;node5 -->
<g id="4" class="edge">
<title>node3:f13&#45;&gt;node5</title>
<path fill="none" stroke="black" d="M186.09,-335.39C186.09,-329.28 186.09,-322.32 186.09,-315.66"/>
<polygon fill="black" stroke="black" points="189.59,-315.62 186.09,-305.62 182.59,-315.62 189.59,-315.62"/>
</g>
<!-- node2 -->
<g id="node9" class="node">
<title>node2</title>
<polygon fill="none" stroke="black" points="91.09,-401.5 91.09,-437.5 145.09,-437.5 145.09,-401.5 91.09,-401.5"/>
<text text-anchor="middle" x="118.09" y="-416.4" font-family="Helvetica,Arial,sans-serif" font-size="12.00">A</text>
</g>
<!-- node2&#45;&gt;node4 -->
<g id="3" class="edge">
<title>node2:f0&#45;&gt;node4</title>
<path fill="none" stroke="black" d="M117.81,-401.39C117.72,-395.28 117.61,-388.32 117.51,-381.66"/>
<polygon fill="black" stroke="black" points="121.01,-381.56 117.35,-371.62 114.01,-381.67 121.01,-381.56"/>
</g>
<!-- node1 -->
<g id="node10" class="node">
<title>node1</title>
<polygon fill="none" stroke="black" points="159.09,-401.5 159.09,-437.5 213.09,-437.5 213.09,-401.5 159.09,-401.5"/>
<text text-anchor="middle" x="186.09" y="-416.4" font-family="Helvetica,Arial,sans-serif" font-size="12.00">I</text>
</g>
<!-- node1&#45;&gt;node3 -->
<g id="2" class="edge">
<title>node1:f8&#45;&gt;node3</title>
<path fill="none" stroke="black" d="M186.09,-401.39C186.09,-395.28 186.09,-388.32 186.09,-381.66"/>
<polygon fill="black" stroke="black" points="189.59,-381.62 186.09,-371.62 182.59,-381.62 189.59,-381.62"/>
</g>
<!-- node14 -->
<g id="node15" class="node">
<title>node14</title>
<ellipse fill="none" stroke="black" cx="35.09" cy="-18" rx="35.18" ry="18"/>
<text text-anchor="middle" x="35.09" y="-14.9" font-family="Helvetica,Arial,sans-serif" font-size="12.00">node14</text>
</g>
<!-- node13&#45;&gt;node14 -->
<g id="13" class="edge">
<title>node13:f17&#45;&gt;node14</title>
<path fill="none" stroke="black" d="M35.09,-65.19C35.09,-59.37 35.09,-52.8 35.09,-46.47"/>
<polygon fill="black" stroke="black" points="38.59,-46.25 35.09,-36.25 31.59,-46.25 38.59,-46.25"/>
</g>
<!-- node0 -->
<g id="node12" class="node">
<title>node0</title>
<polygon fill="none" stroke="black" points="125.09,-467.5 125.09,-509.5 179.09,-509.5 179.09,-467.5 125.09,-467.5"/>
<text text-anchor="middle" x="152.09" y="-495.9" font-family="Helvetica,Arial,sans-serif" font-size="12.00">F</text>
<polyline fill="none" stroke="black" points="125.09,-488.5 179.09,-488.5 "/>
<text text-anchor="middle" x="152.09" y="-474.9" font-family="Helvetica,Arial,sans-serif" font-size="12.00">R</text>
</g>
<!-- node0&#45;&gt;node2 -->
<g id="1" class="edge">
<title>node0:f17&#45;&gt;node2</title>
<path fill="none" stroke="black" d="M152.09,-467C152.09,-459.44 149.12,-452.28 144.94,-445.96"/>
<polygon fill="black" stroke="black" points="147.56,-443.62 138.65,-437.89 142.04,-447.93 147.56,-443.62"/>
</g>
<!-- node0&#45;&gt;node1 -->
<g id="0" class="edge">
<title>node0:f5&#45;&gt;node1</title>
<path fill="none" stroke="black" d="M180.09,-499.5C201.44,-499.5 199.1,-470.45 193.96,-447.59"/>
<polygon fill="black" stroke="black" points="197.29,-446.49 191.47,-437.64 190.5,-448.19 197.29,-446.49"/>
</g>
</g>
</svg>
