<?xml version="1.0" encoding="UTF-8" standalone="no"?>
<!DOCTYPE svg PUBLIC "-//W3C//DTD SVG 1.1//EN"
 "http://www.w3.org/Graphics/SVG/1.1/DTD/svg11.dtd">
<!-- Generated by graphviz version 2.42.4 (0)
 -->
<!-- Title: g Pages: 1 -->
<svg width="130pt" height="453pt"
 viewBox="0.00 0.00 130.00 453.00" xmlns="http://www.w3.org/2000/svg" xmlns:xlink="http://www.w3.org/1999/xlink">
<g id="graph0" class="graph" transform="scale(1 1) rotate(0) translate(4 449)">
<title>g</title>
<polygon fill="white" stroke="transparent" points="-4,4 -4,-449 126,-449 126,4 -4,4"/>
<!-- node10 -->
<g id="node1" class="node">
<title>node10</title>
<polygon fill="none" stroke="black" points="0,-66.5 0,-102.5 54,-102.5 54,-66.5 0,-66.5"/>
<text text-anchor="middle" x="27" y="-81.4" font-family="Helvetica,Arial,sans-serif" font-size="12.00">A</text>
</g>
<!-- node13 -->
<g id="node11" class="node">
<title>node13</title>
<polygon fill="lightgrey" stroke="black" points="0,-0.5 0,-36.5 54,-36.5 54,-0.5 0,-0.5"/>
<text text-anchor="middle" x="27" y="-15.4" font-family="Helvetica,Arial,sans-serif" font-size="12.00">R</text>
</g>
<!-- node10&#45;&gt;node13 -->
<g id="10" class="edge">
<title>node10:f0&#45;&gt;node13</title>
<path fill="none" stroke="black" d="M27,-66.39C27,-60.28 27,-53.32 27,-46.66"/>
<polygon fill="black" stroke="black" points="30.5,-46.62 27,-36.62 23.5,-46.62 30.5,-46.62"/>
</g>
<!-- node9 -->
<g id="node2" class="node">
<title>node9</title>
<polygon fill="lightgrey" stroke="black" points="68,-66.5 68,-102.5 122,-102.5 122,-66.5 68,-66.5"/>
<text text-anchor="middle" x="95" y="-81.4" font-family="Helvetica,Arial,sans-serif" font-size="12.00">H</text>
</g>
<!-- node8 -->
<g id="node3" class="node">
<title>node8</title>
<polygon fill="lightgrey" stroke="black" points="0,-132.5 0,-174.5 54,-174.5 54,-132.5 0,-132.5"/>
<text text-anchor="middle" x="27" y="-160.9" font-family="Helvetica,Arial,sans-serif" font-size="12.00">C</text>
<polyline fill="none" stroke="black" points="0,-153.5 54,-153.5 "/>
<text text-anchor="middle" x="27" y="-139.9" font-family="Helvetica,Arial,sans-serif" font-size="12.00">R</text>
</g>
<!-- node8&#45;&gt;node10 -->
<g id="9" class="edge">
<title>node8:f2&#45;&gt;node10</title>
<path fill="none" stroke="black" d="M55,-164.5C62.23,-164.5 55.99,-138.95 54,-132 52,-125 48.72,-117.96 45.11,-111.54"/>
<polygon fill="black" stroke="black" points="47.91,-109.4 39.72,-102.67 41.92,-113.03 47.91,-109.4"/>
</g>
<!-- node7 -->
<g id="node4" class="node">
<title>node7</title>
<polygon fill="none" stroke="black" points="68,-135.5 68,-171.5 122,-171.5 122,-135.5 68,-135.5"/>
<text text-anchor="middle" x="95" y="-150.4" font-family="Helvetica,Arial,sans-serif" font-size="12.00">S</text>
</g>
<!-- node7&#45;&gt;node9 -->
<g id="8" class="edge">
<title>node7:f18&#45;&gt;node9</title>
<path fill="none" stroke="black" d="M95,-135.28C95,-128.43 95,-120.49 95,-112.99"/>
<polygon fill="black" stroke="black" points="98.5,-112.84 95,-102.84 91.5,-112.84 98.5,-112.84"/>
</g>
<!-- node6 -->
<g id="node5" class="node">
<title>node6</title>
<polygon fill="none" stroke="black" points="0,-204.5 0,-240.5 54,-240.5 54,-204.5 0,-204.5"/>
<text text-anchor="middle" x="27" y="-219.4" font-family="Helvetica,Arial,sans-serif" font-size="12.00">E</text>
</g>
<!-- node6&#45;&gt;node8 -->
<g id="7" class="edge">
<title>node6:f4&#45;&gt;node8</title>
<path fill="none" stroke="black" d="M27,-204.28C27,-198.29 27,-191.46 27,-184.82"/>
<polygon fill="black" stroke="black" points="30.5,-184.69 27,-174.69 23.5,-184.69 30.5,-184.69"/>
</g>
<!-- node5 -->
<g id="node6" class="node">
<title>node5</title>
<polygon fill="none" stroke="black" points="68,-204.5 68,-240.5 122,-240.5 122,-204.5 68,-204.5"/>
<text text-anchor="middle" x="95" y="-219.4" font-family="Helvetica,Arial,sans-serif" font-size="12.00">I</text>
</g>
<!-- node5&#45;&gt;node7 -->
<g id="6" class="edge">
<title>node5:f8&#45;&gt;node7</title>
<path fill="none" stroke="black" d="M95,-204.28C95,-197.43 95,-189.49 95,-181.99"/>
<polygon fill="black" stroke="black" points="98.5,-181.84 95,-171.84 91.5,-181.84 98.5,-181.84"/>
</g>
<!-- node4 -->
<g id="node7" class="node">
<title>node4</title>
<polygon fill="none" stroke="black" points="0,-270.5 0,-306.5 54,-306.5 54,-270.5 0,-270.5"/>
<text text-anchor="middle" x="27" y="-285.4" font-family="Helvetica,Arial,sans-serif" font-size="12.00">C</text>
</g>
<!-- node4&#45;&gt;node6 -->
<g id="5" class="edge">
<title>node4:f2&#45;&gt;node6</title>
<path fill="none" stroke="black" d="M27,-270.39C27,-264.28 27,-257.32 27,-250.66"/>
<polygon fill="black" stroke="black" points="30.5,-250.62 27,-240.62 23.5,-250.62 30.5,-250.62"/>
</g>
<!-- node3 -->
<g id="node8" class="node">
<title>node3</title>
<polygon fill="none" stroke="black" points="68,-270.5 68,-306.5 122,-306.5 122,-270.5 68,-270.5"/>
<text text-anchor="middle" x="95" y="-285.4" font-family="Helvetica,Arial,sans-serif" font-size="12.00">N</text>
</g>
<!-- node3&#45;&gt;node5 -->
<g id="4" class="edge">
<title>node3:f13&#45;&gt;node5</title>
<path fill="none" stroke="black" d="M95,-270.39C95,-264.28 95,-257.32 95,-250.66"/>
<polygon fill="black" stroke="black" points="98.5,-250.62 95,-240.62 91.5,-250.62 98.5,-250.62"/>
</g>
<!-- node2 -->
<g id="node9" class="node">
<title>node2</title>
<polygon fill="none" stroke="black" points="0,-336.5 0,-372.5 54,-372.5 54,-336.5 0,-336.5"/>
<text text-anchor="middle" x="27" y="-351.4" font-family="Helvetica,Arial,sans-serif" font-size="12.00">A</text>
</g>
<!-- node2&#45;&gt;node4 -->
<g id="3" class="edge">
<title>node2:f0&#45;&gt;node4</title>
<path fill="none" stroke="black" d="M27,-336.39C27,-330.28 27,-323.32 27,-316.66"/>
<polygon fill="black" stroke="black" points="30.5,-316.62 27,-306.62 23.5,-316.62 30.5,-316.62"/>
</g>
<!-- node1 -->
<g id="node10" class="node">
<title>node1</title>
<polygon fill="none" stroke="black" points="68,-336.5 68,-372.5 122,-372.5 122,-336.5 68,-336.5"/>
<text text-anchor="middle" x="95" y="-351.4" font-family="Helvetica,Arial,sans-serif" font-size="12.00">I</text>
</g>
<!-- node1&#45;&gt;node3 -->
<g id="2" class="edge">
<title>node1:f8&#45;&gt;node3</title>
<path fill="none" stroke="black" d="M95,-336.39C95,-330.28 95,-323.32 95,-316.66"/>
<polygon fill="black" stroke="black" points="98.5,-316.62 95,-306.62 91.5,-316.62 98.5,-316.62"/>
</g>
<!-- node0 -->
<g id="node12" class="node">
<title>node0</title>
<polygon fill="none" stroke="black" points="34,-402.5 34,-444.5 88,-444.5 88,-402.5 34,-402.5"/>
<text text-anchor="middle" x="61" y="-430.9" font-family="Helvetica,Arial,sans-serif" font-size="12.00">F</text>
<polyline fill="none" stroke="black" points="34,-423.5 88,-423.5 "/>
<text text-anchor="middle" x="61" y="-409.9" font-family="Helvetica,Arial,sans-serif" font-size="12.00">R</text>
</g>
<!-- node0&#45;&gt;node2 -->
<g id="1" class="edge">
<title>node0:f17&#45;&gt;node2</title>
<path fill="none" stroke="black" d="M61,-402C61,-394.44 58.03,-387.28 53.85,-380.96"/>
<polygon fill="black" stroke="black" points="56.47,-378.62 47.56,-372.89 50.95,-382.93 56.47,-378.62"/>
</g>
<!-- node0&#45;&gt;node1 -->
<g id="0" class="edge">
<title>node0:f5&#45;&gt;node1</title>
<path fill="none" stroke="black" d="M89,-434.5C110.35,-434.5 108.02,-405.45 102.87,-382.59"/>
<polygon fill="black" stroke="black" points="106.2,-381.49 100.38,-372.64 99.41,-383.19 106.2,-381.49"/>
</g>
</g>
</svg>
